<svg width="20" height="20" viewBox="0 0 20 20" fill="none" xmlns="http://www.w3.org/2000/svg">
<path fill-rule="evenodd" clip-rule="evenodd" d="M10.5877 3.92108C10.2631 3.59646 9.73683 3.59646 9.41222 3.92108V3.92108C9.08781 4.24548 9.08757 4.77138 9.41169 5.09608L13.475 9.16665H4.16665C3.70641 9.16665 3.33331 9.53974 3.33331 9.99998V9.99998C3.33331 10.4602 3.70641 10.8333 4.16665 10.8333H13.475L9.41169 14.9039C9.08757 15.2286 9.08781 15.7545 9.41222 16.0789V16.0789C9.73683 16.4035 10.2631 16.4035 10.5877 16.0789L16.6666 9.99998L10.5877 3.92108Z" fill="black" fill-opacity="0.7"/>
<mask id="mask0_26_11" style="mask-type:alpha" maskUnits="userSpaceOnUse" x="3" y="3" width="14" height="14">
<path fill-rule="evenodd" clip-rule="evenodd" d="M10.5877 3.92108C10.2631 3.59646 9.73683 3.59646 9.41222 3.92108V3.92108C9.08781 4.24548 9.08757 4.77138 9.41169 5.09608L13.475 9.16665H4.16665C3.70641 9.16665 3.33331 9.53974 3.33331 9.99998V9.99998C3.33331 10.4602 3.70641 10.8333 4.16665 10.8333H13.475L9.41169 14.9039C9.08757 15.2286 9.08781 15.7545 9.41222 16.0789V16.0789C9.73683 16.4035 10.2631 16.4035 10.5877 16.0789L16.6666 9.99998L10.5877 3.92108Z" fill="white"/>
</mask>
<g mask="url(#mask0_26_11)">
<rect width="20" height="20" fill="#424B5A"/>
</g>
</svg>
