<svg width="386" height="388" viewBox="0 0 386 388" fill="none" xmlns="http://www.w3.org/2000/svg">
<g filter="url(#filter0_dd_1_90095)">
<g clip-path="url(#clip0_1_90095)">
<rect x="35" y="10" width="316" height="318" rx="8" fill="white"/>
<path d="M132.906 75.8L120.978 85.32L124.842 90.248L131.73 84.76V115H138.45V75.8H132.906ZM147.877 111.248C147.877 112.48 148.269 113.544 149.165 114.384C150.005 115.28 151.069 115.672 152.301 115.672C153.533 115.672 154.541 115.28 155.437 114.384C156.277 113.544 156.725 112.48 156.725 111.248C156.725 110.016 156.277 109.008 155.437 108.112C154.541 107.272 153.533 106.824 152.301 106.824C151.069 106.824 150.005 107.272 149.165 108.112C148.269 109.008 147.877 110.016 147.877 111.248ZM181.237 87.112C181.237 88.96 180.621 90.304 179.389 91.144C178.157 91.984 176.477 92.376 174.461 92.376H172.333V98.536H175.133C176.029 98.536 176.869 98.648 177.709 98.872C178.549 99.096 179.333 99.376 180.005 99.824C180.677 100.272 181.181 100.776 181.629 101.448C182.021 102.12 182.245 102.96 182.245 103.912C182.245 105.592 181.629 106.936 180.397 107.944C179.165 108.952 177.541 109.4 175.525 109.4C174.293 109.4 173.173 109.232 172.277 108.896C171.381 108.56 170.597 108.056 169.925 107.496C169.253 106.936 168.693 106.264 168.245 105.536C167.797 104.864 167.405 104.136 167.181 103.408L161.693 106.6C162.085 107.72 162.645 108.84 163.429 109.96C164.213 111.08 165.165 112.032 166.285 112.872C167.405 113.712 168.749 114.384 170.261 114.888C171.773 115.448 173.509 115.672 175.413 115.672C177.317 115.672 179.053 115.448 180.733 114.888C182.357 114.328 183.813 113.544 185.045 112.536C186.277 111.528 187.229 110.352 187.901 108.896C188.573 107.44 188.965 105.816 188.965 103.968C188.965 102.736 188.797 101.672 188.461 100.664C188.125 99.656 187.733 98.816 187.173 98.088C186.613 97.36 185.997 96.744 185.325 96.24C184.653 95.736 183.925 95.344 183.197 95.12C183.701 94.784 184.261 94.392 184.821 93.888C185.381 93.44 185.941 92.824 186.389 92.152C186.837 91.48 187.229 90.64 187.565 89.744C187.845 88.848 188.013 87.84 188.013 86.608C188.013 84.928 187.677 83.416 187.005 81.96C186.333 80.56 185.493 79.328 184.373 78.32C183.253 77.312 181.909 76.528 180.397 75.968C178.829 75.408 177.205 75.128 175.413 75.128C173.621 75.128 172.053 75.408 170.709 75.912C169.365 76.416 168.133 77.032 167.125 77.816C166.117 78.6 165.221 79.496 164.549 80.504C163.821 81.512 163.261 82.464 162.869 83.416L168.693 86.16C168.917 85.6 169.197 84.984 169.589 84.424C169.981 83.864 170.429 83.36 170.989 82.912C171.549 82.464 172.165 82.128 172.893 81.848C173.621 81.568 174.461 81.4 175.357 81.4C177.093 81.4 178.493 81.96 179.613 82.968C180.677 83.976 181.237 85.376 181.237 87.112ZM201.919 75.8H195.703V115H202.423V88.68L214.687 107.328L226.951 88.68V115H233.671V75.8H227.455L214.687 95.512L201.919 75.8ZM265.656 104.36V98.088H255.744V87.784H249.024V98.088H239.112V104.36H249.024V115H255.744V104.36H265.656Z" fill="#1A2578"/>
<path d="M131.625 162.082L134.265 155.24L136.905 162.082H131.625ZM133.407 152.6L127.357 168H129.337L130.943 163.842H137.587L139.193 168H141.129L135.123 152.6H133.407ZM151.394 166.306L150.206 165.096C149.942 165.448 149.546 165.778 149.04 166.086C148.534 166.394 147.94 166.548 147.236 166.548C146.708 166.548 146.246 166.46 145.828 166.262C145.41 166.086 145.058 165.822 144.772 165.492C144.464 165.162 144.244 164.766 144.09 164.326C143.914 163.886 143.848 163.424 143.848 162.918C143.848 162.434 143.914 161.95 144.09 161.51C144.244 161.07 144.464 160.696 144.772 160.366C145.058 160.036 145.41 159.772 145.828 159.574C146.246 159.398 146.708 159.288 147.236 159.288C147.896 159.288 148.468 159.442 148.952 159.706C149.414 159.97 149.766 160.256 150.03 160.52L151.284 159.398C151.108 159.2 150.866 158.98 150.602 158.76C150.338 158.54 150.03 158.342 149.7 158.166C149.348 157.99 148.974 157.858 148.578 157.748C148.16 157.638 147.72 157.572 147.236 157.572C146.488 157.572 145.784 157.726 145.146 157.99C144.508 158.276 143.958 158.65 143.496 159.134C143.012 159.618 142.66 160.19 142.396 160.828C142.132 161.488 142 162.17 142 162.918C142 163.666 142.132 164.37 142.396 165.03C142.66 165.69 143.012 166.24 143.496 166.724C143.958 167.208 144.508 167.582 145.146 167.846C145.784 168.132 146.488 168.264 147.236 168.264C147.72 168.264 148.182 168.22 148.622 168.088C149.04 167.978 149.414 167.824 149.766 167.626C150.118 167.45 150.426 167.23 150.69 166.988C150.954 166.768 151.196 166.526 151.394 166.306ZM152.308 157.836V159.508H154.288V165.074C154.288 165.646 154.376 166.13 154.552 166.526C154.728 166.922 154.97 167.252 155.278 167.516C155.564 167.78 155.894 167.956 156.268 168.088C156.62 168.22 156.994 168.264 157.39 168.264C157.654 168.264 157.962 168.242 158.292 168.154C158.622 168.066 159.018 167.912 159.458 167.648L158.776 166.13C158.578 166.262 158.38 166.35 158.204 166.438C158.006 166.526 157.786 166.548 157.544 166.548C157.104 166.548 156.752 166.416 156.51 166.152C156.246 165.888 156.136 165.492 156.136 164.986V159.508H159.304V157.836H156.136V154.734H154.288V157.836H152.308ZM161.46 154.58C161.46 154.932 161.57 155.218 161.834 155.46C162.076 155.724 162.362 155.834 162.714 155.834C163.044 155.834 163.33 155.724 163.594 155.46C163.836 155.218 163.968 154.932 163.968 154.58C163.968 154.25 163.836 153.964 163.594 153.7C163.33 153.458 163.044 153.326 162.714 153.326C162.362 153.326 162.076 153.458 161.834 153.7C161.57 153.964 161.46 154.25 161.46 154.58ZM161.79 157.836V168H163.638V157.836H161.79ZM167.536 157.836H165.512L170.594 168.44L175.676 157.836H173.784L170.66 164.722L167.536 157.836ZM184.732 162.038H178.352C178.374 161.774 178.462 161.488 178.594 161.158C178.726 160.85 178.924 160.542 179.188 160.278C179.452 160.014 179.76 159.772 180.156 159.574C180.552 159.398 181.014 159.288 181.564 159.288C182.092 159.288 182.532 159.376 182.928 159.552C183.324 159.728 183.632 159.97 183.896 160.234C184.16 160.52 184.358 160.828 184.49 161.136C184.622 161.466 184.71 161.774 184.732 162.038ZM181.564 157.572C180.794 157.572 180.09 157.726 179.474 157.99C178.858 158.276 178.33 158.65 177.89 159.134C177.45 159.618 177.098 160.19 176.856 160.828C176.614 161.488 176.504 162.17 176.504 162.874C176.504 163.644 176.636 164.348 176.9 165.008C177.164 165.668 177.516 166.24 177.978 166.724C178.44 167.208 178.99 167.604 179.65 167.868C180.288 168.132 180.992 168.264 181.74 168.264C182.224 168.264 182.686 168.22 183.126 168.11C183.544 168 183.94 167.846 184.292 167.648C184.644 167.472 184.974 167.252 185.26 167.01C185.546 166.768 185.81 166.526 186.03 166.262L184.864 165.052C184.556 165.448 184.16 165.778 183.632 166.086C183.104 166.394 182.51 166.548 181.806 166.548C181.322 166.548 180.86 166.482 180.464 166.306C180.046 166.152 179.694 165.932 179.386 165.646C179.078 165.382 178.814 165.052 178.638 164.7C178.44 164.348 178.33 163.974 178.308 163.578H186.514C186.514 163.468 186.536 163.358 186.536 163.27V162.984C186.536 162.17 186.404 161.422 186.162 160.762C185.898 160.102 185.568 159.53 185.128 159.046C184.688 158.584 184.16 158.232 183.544 157.968C182.928 157.704 182.268 157.572 181.564 157.572ZM198.61 168.264C199.006 168.264 199.38 168.22 199.732 168.088C200.062 167.978 200.37 167.824 200.634 167.648C200.898 167.472 201.118 167.296 201.294 167.076C201.47 166.856 201.624 166.658 201.756 166.438V168H203.472V157.836H201.624V164.876C201.382 165.316 201.052 165.69 200.634 166.042C200.216 166.394 199.688 166.548 199.028 166.548C198.72 166.548 198.412 166.504 198.126 166.416C197.84 166.328 197.598 166.174 197.378 165.954C197.158 165.756 196.982 165.492 196.85 165.184C196.718 164.876 196.652 164.502 196.652 164.062V157.836H194.804V164.37C194.804 165.008 194.892 165.558 195.112 166.042C195.332 166.526 195.618 166.944 195.97 167.274C196.322 167.604 196.718 167.846 197.18 168.022C197.62 168.198 198.104 168.264 198.61 168.264ZM206.914 164.942L205.638 166.13C205.814 166.394 206.056 166.658 206.364 166.9C206.65 167.164 206.98 167.384 207.354 167.582C207.706 167.802 208.124 167.956 208.564 168.088C209.004 168.22 209.488 168.264 210.016 168.264C210.5 168.264 210.984 168.22 211.468 168.088C211.952 167.956 212.37 167.78 212.744 167.516C213.118 167.274 213.426 166.966 213.668 166.57C213.888 166.174 214.02 165.712 214.02 165.184C214.02 164.656 213.888 164.216 213.668 163.864C213.426 163.512 213.14 163.204 212.788 162.962C212.436 162.742 212.04 162.544 211.622 162.412C211.204 162.28 210.808 162.17 210.434 162.082C210.126 162.016 209.818 161.95 209.532 161.862C209.224 161.774 208.96 161.686 208.74 161.576C208.498 161.466 208.3 161.334 208.168 161.158C208.036 161.004 207.97 160.806 207.97 160.564C207.97 160.234 208.124 159.926 208.454 159.662C208.762 159.398 209.246 159.244 209.862 159.244C210.478 159.244 210.984 159.376 211.424 159.618C211.842 159.86 212.194 160.102 212.458 160.366L213.668 159.112C213.294 158.738 212.788 158.386 212.15 158.056C211.512 157.748 210.764 157.572 209.906 157.572C209.334 157.572 208.806 157.66 208.366 157.814C207.904 157.99 207.508 158.21 207.178 158.474C206.848 158.76 206.606 159.09 206.43 159.464C206.254 159.838 206.166 160.234 206.166 160.63C206.166 161.158 206.298 161.62 206.562 161.972C206.826 162.346 207.134 162.654 207.53 162.874C207.904 163.094 208.3 163.27 208.74 163.402C209.158 163.534 209.532 163.644 209.884 163.71C210.148 163.776 210.412 163.842 210.676 163.908C210.94 163.996 211.204 164.084 211.424 164.194C211.644 164.326 211.842 164.458 211.974 164.634C212.106 164.81 212.194 165.03 212.194 165.25C212.194 165.514 212.106 165.712 211.974 165.888C211.842 166.064 211.666 166.196 211.446 166.306C211.226 166.416 211.006 166.482 210.742 166.526C210.478 166.57 210.236 166.592 210.016 166.592C209.62 166.592 209.268 166.548 208.96 166.438C208.652 166.35 208.366 166.218 208.102 166.042C207.838 165.888 207.596 165.712 207.398 165.514C207.2 165.338 207.046 165.14 206.914 164.942ZM223.833 162.038H217.453C217.475 161.774 217.563 161.488 217.695 161.158C217.827 160.85 218.025 160.542 218.289 160.278C218.553 160.014 218.861 159.772 219.257 159.574C219.653 159.398 220.115 159.288 220.665 159.288C221.193 159.288 221.633 159.376 222.029 159.552C222.425 159.728 222.733 159.97 222.997 160.234C223.261 160.52 223.459 160.828 223.591 161.136C223.723 161.466 223.811 161.774 223.833 162.038ZM220.665 157.572C219.895 157.572 219.191 157.726 218.575 157.99C217.959 158.276 217.431 158.65 216.991 159.134C216.551 159.618 216.199 160.19 215.957 160.828C215.715 161.488 215.605 162.17 215.605 162.874C215.605 163.644 215.737 164.348 216.001 165.008C216.265 165.668 216.617 166.24 217.079 166.724C217.541 167.208 218.091 167.604 218.751 167.868C219.389 168.132 220.093 168.264 220.841 168.264C221.325 168.264 221.787 168.22 222.227 168.11C222.645 168 223.041 167.846 223.393 167.648C223.745 167.472 224.075 167.252 224.361 167.01C224.647 166.768 224.911 166.526 225.131 166.262L223.965 165.052C223.657 165.448 223.261 165.778 222.733 166.086C222.205 166.394 221.611 166.548 220.907 166.548C220.423 166.548 219.961 166.482 219.565 166.306C219.147 166.152 218.795 165.932 218.487 165.646C218.179 165.382 217.915 165.052 217.739 164.7C217.541 164.348 217.431 163.974 217.409 163.578H225.615C225.615 163.468 225.637 163.358 225.637 163.27V162.984C225.637 162.17 225.505 161.422 225.263 160.762C224.999 160.102 224.669 159.53 224.229 159.046C223.789 158.584 223.261 158.232 222.645 157.968C222.029 157.704 221.369 157.572 220.665 157.572ZM232.315 157.572C231.963 157.572 231.633 157.638 231.347 157.726C231.039 157.836 230.775 157.968 230.555 158.144C230.313 158.32 230.093 158.496 229.917 158.716C229.741 158.936 229.587 159.178 229.455 159.398V157.836H227.739V168H229.587V161.004C229.675 160.828 229.785 160.63 229.917 160.41C230.049 160.212 230.225 160.036 230.423 159.86C230.621 159.706 230.841 159.574 231.105 159.464C231.347 159.354 231.633 159.288 231.963 159.288C232.117 159.288 232.293 159.31 232.513 159.354C232.733 159.398 232.909 159.442 233.085 159.508L233.767 157.836C233.525 157.748 233.283 157.682 233.019 157.638C232.755 157.594 232.535 157.572 232.315 157.572ZM235.832 164.942L234.556 166.13C234.732 166.394 234.974 166.658 235.282 166.9C235.568 167.164 235.898 167.384 236.272 167.582C236.624 167.802 237.042 167.956 237.482 168.088C237.922 168.22 238.406 168.264 238.934 168.264C239.418 168.264 239.902 168.22 240.386 168.088C240.87 167.956 241.288 167.78 241.662 167.516C242.036 167.274 242.344 166.966 242.586 166.57C242.806 166.174 242.938 165.712 242.938 165.184C242.938 164.656 242.806 164.216 242.586 163.864C242.344 163.512 242.058 163.204 241.706 162.962C241.354 162.742 240.958 162.544 240.54 162.412C240.122 162.28 239.726 162.17 239.352 162.082C239.044 162.016 238.736 161.95 238.45 161.862C238.142 161.774 237.878 161.686 237.658 161.576C237.416 161.466 237.218 161.334 237.086 161.158C236.954 161.004 236.888 160.806 236.888 160.564C236.888 160.234 237.042 159.926 237.372 159.662C237.68 159.398 238.164 159.244 238.78 159.244C239.396 159.244 239.902 159.376 240.342 159.618C240.76 159.86 241.112 160.102 241.376 160.366L242.586 159.112C242.212 158.738 241.706 158.386 241.068 158.056C240.43 157.748 239.682 157.572 238.824 157.572C238.252 157.572 237.724 157.66 237.284 157.814C236.822 157.99 236.426 158.21 236.096 158.474C235.766 158.76 235.524 159.09 235.348 159.464C235.172 159.838 235.084 160.234 235.084 160.63C235.084 161.158 235.216 161.62 235.48 161.972C235.744 162.346 236.052 162.654 236.448 162.874C236.822 163.094 237.218 163.27 237.658 163.402C238.076 163.534 238.45 163.644 238.802 163.71C239.066 163.776 239.33 163.842 239.594 163.908C239.858 163.996 240.122 164.084 240.342 164.194C240.562 164.326 240.76 164.458 240.892 164.634C241.024 164.81 241.112 165.03 241.112 165.25C241.112 165.514 241.024 165.712 240.892 165.888C240.76 166.064 240.584 166.196 240.364 166.306C240.144 166.416 239.924 166.482 239.66 166.526C239.396 166.57 239.154 166.592 238.934 166.592C238.538 166.592 238.186 166.548 237.878 166.438C237.57 166.35 237.284 166.218 237.02 166.042C236.756 165.888 236.514 165.712 236.316 165.514C236.118 165.338 235.964 165.14 235.832 164.942Z" fill="#484C63"/>
<path d="M193.5 441C259.498 441 313 386.603 313 319.5C313 252.397 259.498 198 193.5 198C127.502 198 74 252.397 74 319.5C74 386.603 127.502 441 193.5 441Z" fill="url(#paint0_linear_1_90095)"/>
<path d="M183.219 275.983L139.123 328.591L140.059 329.376L184.156 276.768L183.219 275.983Z" fill="#120283"/>
<path d="M58.5985 305.14L58.231 306.305L139.264 331.87L139.632 330.705L58.5985 305.14Z" fill="#120283"/>
<path d="M59.6109 320.275C67.6233 319.619 73.5868 312.592 72.9309 304.579C72.275 296.567 65.248 290.604 57.2357 291.259C49.2233 291.915 43.2598 298.942 43.9157 306.955C44.5716 314.967 51.5986 320.931 59.6109 320.275Z" fill="#353A85"/>
<path d="M108.992 245.277L107.85 245.711L139.104 328.03L140.246 327.596L108.992 245.277Z" fill="#120283"/>
<path d="M110.12 245.033L109.65 246.161L183.455 276.928L183.925 275.801L110.12 245.033Z" fill="#120283"/>
<path d="M256.132 239.172L181.872 275.728L182.411 276.825L256.672 240.268L256.132 239.172Z" fill="#120283"/>
<path d="M184.01 275.847L183.371 276.888L261.437 324.877L262.077 323.836L184.01 275.847Z" fill="#120283"/>
<path d="M332.618 266.658L261.375 323.898L262.14 324.851L333.383 267.611L332.618 266.658Z" fill="#120283"/>
<path d="M192.996 297.77C206.806 294.299 215.187 280.29 211.715 266.481C208.244 252.671 194.235 244.29 180.426 247.762C166.616 251.233 158.235 265.242 161.707 279.051C165.178 292.861 179.187 301.242 192.996 297.77Z" fill="#353A85"/>
<path d="M334.217 285.106C344.188 284.432 351.724 275.801 351.05 265.83C350.375 255.859 341.745 248.323 331.774 248.997C321.803 249.672 314.267 258.302 314.941 268.273C315.616 278.244 324.246 285.781 334.217 285.106Z" fill="#353A85"/>
<path d="M129.773 247.926C130.864 237.206 123.058 227.632 112.339 226.541C101.619 225.451 92.0452 233.256 90.9544 243.976C89.8637 254.695 97.6693 264.269 108.389 265.36C119.108 266.451 128.682 258.645 129.773 247.926Z" fill="#120283"/>
<path d="M268.51 247.338C272.716 240.653 270.707 231.823 264.022 227.617C257.337 223.41 248.508 225.419 244.301 232.104C240.095 238.789 242.104 247.619 248.789 251.825C255.474 256.032 264.303 254.023 268.51 247.338Z" fill="#BF0830"/>
<path d="M287.693 342.681C302.677 327.696 302.677 303.402 287.693 288.418C272.709 273.433 248.415 273.433 233.43 288.418C218.446 303.402 218.446 327.696 233.43 342.681C248.415 357.665 272.709 357.665 287.693 342.681Z" fill="#120283"/>
<path d="M140.112 343.212C151.985 341.683 160.371 330.817 158.842 318.944C157.312 307.07 146.447 298.684 134.573 300.213C122.699 301.743 114.313 312.609 115.843 324.482C117.372 336.356 128.238 344.742 140.112 343.212Z" fill="#BF0830"/>
<path d="M57.666 318.631C59.3602 318.741 61.0594 318.516 62.6664 317.968C64.2734 317.421 65.7567 316.562 67.0315 315.441C66.7118 314.228 66.3166 313.036 65.8482 311.873C65.0892 310 63.6748 308.466 61.8688 307.559L61.9142 307.496C62.6187 306.266 62.96 304.862 62.8985 303.447C62.8985 302.124 62.6472 300.759 61.8513 299.645C61.4279 299.012 60.837 298.508 60.1444 298.19C59.4517 297.872 58.6845 297.753 57.928 297.845C57.1716 297.937 56.4555 298.238 55.8595 298.713C55.2636 299.188 54.811 299.818 54.5523 300.535C53.9938 301.879 54.0531 303.328 54.1614 304.759C54.2324 305.778 54.5192 306.77 55.0026 307.67C53.8672 308.405 52.8768 309.342 52.0809 310.435C51.1524 311.629 51.1908 311.685 50.6078 313.095C50.3216 313.793 50.0389 314.491 49.791 315.29C51.9593 317.268 54.7373 318.446 57.666 318.631Z" fill="white"/>
<path d="M109.625 262.742C111.864 262.889 114.11 262.592 116.234 261.869C118.358 261.146 120.319 260.011 122.003 258.528C121.583 256.924 121.062 255.347 120.443 253.809C119.439 251.333 117.569 249.307 115.182 248.109C115.182 248.077 115.224 248.053 115.241 248.025C116.25 246.398 116.557 244.513 116.54 242.674C116.54 240.928 116.212 239.12 115.144 237.644C114.576 236.858 113.818 236.229 112.942 235.814C112.066 235.399 111.099 235.212 110.131 235.27C107.977 235.462 106.246 237.054 105.509 238.827C104.773 240.6 104.85 242.534 104.996 244.412C105.087 245.757 105.467 247.067 106.11 248.252C104.608 249.221 103.298 250.458 102.246 251.903C101.02 253.484 101.069 253.558 100.298 255.418C99.9209 256.336 99.5439 257.282 99.2192 258.322C102.083 260.938 105.754 262.497 109.625 262.742Z" fill="white"/>
<path d="M136.245 340.992C138.654 341.149 141.069 340.829 143.354 340.05C145.639 339.272 147.747 338.05 149.558 336.454C149.105 334.729 148.544 333.034 147.879 331.379C146.799 328.717 144.788 326.539 142.221 325.249C142.238 325.218 142.263 325.19 142.284 325.159C143.369 323.413 143.701 321.382 143.68 319.406C143.663 317.524 143.331 315.566 142.179 313.999C141.568 313.152 140.753 312.474 139.809 312.027C138.866 311.579 137.825 311.378 136.783 311.44C134.468 311.65 132.594 313.36 131.815 315.28C131.037 317.2 131.117 319.27 131.26 321.284C131.36 322.733 131.768 324.145 132.458 325.424C130.843 326.466 129.434 327.797 128.304 329.351C126.984 331.051 127.04 331.128 126.209 333.131C125.801 334.116 125.396 335.135 125.047 336.255C128.132 339.063 132.082 340.734 136.245 340.992Z" fill="white"/>
<path d="M332.083 281.881C334.162 282.017 336.247 281.741 338.218 281.069C340.19 280.398 342.01 279.344 343.574 277.968C343.182 276.479 342.697 275.016 342.122 273.587C341.188 271.29 339.451 269.409 337.235 268.295C337.235 268.271 337.274 268.246 337.288 268.218C338.227 266.71 338.509 264.962 338.495 263.255C338.495 261.628 338.192 259.956 337.2 258.588C336.673 257.857 335.97 257.272 335.156 256.885C334.341 256.499 333.443 256.325 332.544 256.378C330.547 256.56 328.941 258.036 328.257 259.684C327.573 261.331 327.643 263.122 327.779 264.864C327.87 266.115 328.227 267.333 328.826 268.435C327.432 269.335 326.216 270.484 325.238 271.824C324.103 273.29 324.149 273.36 323.433 275.088C323.084 275.936 322.735 276.816 322.431 277.783C325.089 280.207 328.493 281.653 332.083 281.881Z" fill="white"/>
<path d="M185.436 294.999C188.34 295.189 191.254 294.803 194.009 293.864C196.765 292.926 199.308 291.453 201.493 289.529C200.946 287.446 200.269 285.4 199.465 283.403C198.16 280.191 195.734 277.561 192.637 276.003C192.66 275.965 192.686 275.929 192.714 275.895C194.023 273.8 194.421 271.336 194.4 268.948C194.4 266.676 193.974 264.337 192.588 262.42C191.202 260.504 188.678 259.101 186.078 259.335C183.285 259.59 181.037 261.653 180.081 263.953C179.124 266.253 179.236 268.77 179.425 271.213C179.545 272.963 180.038 274.666 180.87 276.209C179.034 277.319 177.407 278.945 175.854 280.949C174.3 282.953 174.332 283.096 173.33 285.515C172.838 286.702 172.352 287.93 171.934 289.285C175.653 292.67 180.416 294.686 185.436 294.999Z" fill="white"/>
<path d="M255.665 251.603C257.329 251.71 258.997 251.488 260.575 250.949C262.153 250.41 263.609 249.564 264.859 248.461C264.546 247.274 264.159 246.109 263.7 244.971C262.955 243.132 261.567 241.627 259.794 240.736C259.807 240.715 259.821 240.694 259.836 240.674C260.529 239.468 260.864 238.09 260.803 236.701C260.803 235.399 260.559 234.062 259.756 232.966C259.339 232.347 258.759 231.856 258.08 231.547C257.401 231.237 256.65 231.121 255.909 231.212C255.169 231.302 254.468 231.596 253.884 232.06C253.3 232.525 252.855 233.141 252.6 233.842C252.052 235.158 252.108 236.596 252.216 237.989C252.285 238.99 252.567 239.965 253.043 240.848C251.928 241.566 250.955 242.485 250.174 243.557C249.263 244.733 249.301 244.786 248.729 246.171C248.446 246.849 248.167 247.568 247.926 248.329C250.057 250.27 252.787 251.425 255.665 251.603Z" fill="white"/>
<path d="M258.489 350.134C263.189 350.443 267.903 349.821 272.361 348.303C276.819 346.786 280.935 344.403 284.47 341.292C283.585 337.925 282.489 334.616 281.189 331.386C279.082 326.192 275.16 321.94 270.151 319.423C270.19 319.364 270.239 319.308 270.274 319.249C272.392 315.838 273.038 311.88 273.007 308.019C272.975 304.347 272.309 300.567 270.075 297.467C267.841 294.367 263.753 292.098 259.55 292.479C255.033 292.887 251.399 296.224 249.857 299.945C248.314 303.666 248.46 307.726 248.775 311.66C248.966 314.487 249.763 317.241 251.11 319.734C248.139 321.528 245.525 324.157 243.001 327.413C240.432 330.726 240.537 330.883 238.92 334.789C238.124 336.713 237.336 338.699 236.651 340.884C242.665 346.364 250.369 349.627 258.489 350.134Z" fill="white"/>
</g>
</g>
<defs>
<filter id="filter0_dd_1_90095" x="0" y="0" width="386" height="388" filterUnits="userSpaceOnUse" color-interpolation-filters="sRGB">
<feFlood flood-opacity="0" result="BackgroundImageFix"/>
<feColorMatrix in="SourceAlpha" type="matrix" values="0 0 0 0 0 0 0 0 0 0 0 0 0 0 0 0 0 0 127 0" result="hardAlpha"/>
<feOffset dy="25"/>
<feGaussianBlur stdDeviation="17.5"/>
<feColorMatrix type="matrix" values="0 0 0 0 0.0862745 0 0 0 0 0.0901961 0 0 0 0 0.282353 0 0 0 0.05 0"/>
<feBlend mode="normal" in2="BackgroundImageFix" result="effect1_dropShadow_1_90095"/>
<feColorMatrix in="SourceAlpha" type="matrix" values="0 0 0 0 0 0 0 0 0 0 0 0 0 0 0 0 0 0 127 0" result="hardAlpha"/>
<feOffset/>
<feGaussianBlur stdDeviation="4"/>
<feColorMatrix type="matrix" values="0 0 0 0 0.0862745 0 0 0 0 0.0901961 0 0 0 0 0.282353 0 0 0 0.07 0"/>
<feBlend mode="normal" in2="effect1_dropShadow_1_90095" result="effect2_dropShadow_1_90095"/>
<feBlend mode="normal" in="SourceGraphic" in2="effect2_dropShadow_1_90095" result="shape"/>
</filter>
<linearGradient id="paint0_linear_1_90095" x1="303.121" y1="203.324" x2="-20.4525" y2="337.71" gradientUnits="userSpaceOnUse">
<stop stop-color="#E3E7F6"/>
<stop offset="1" stop-color="#E3E7F6" stop-opacity="0"/>
</linearGradient>
<clipPath id="clip0_1_90095">
<rect x="35" y="10" width="316" height="318" rx="8" fill="white"/>
</clipPath>
</defs>
</svg>
