<svg width="387" height="388" viewBox="0 0 387 388" fill="none" xmlns="http://www.w3.org/2000/svg">
<g filter="url(#filter0_dd_1_89960)">
<g clip-path="url(#clip0_1_89960)">
<rect x="35" y="10" width="317" height="318" rx="8" fill="white"/>
<path d="M165.866 100.216H156.01L165.866 85.04V100.216ZM164.97 75.8L145.034 106.488H165.754V115H172.474V106.488H176.786V100.216H172.474V75.8H164.97ZM199.061 100.216H189.205L199.061 85.04V100.216ZM198.165 75.8L178.229 106.488H198.949V115H205.669V106.488H209.981V100.216H205.669V75.8H198.165ZM239.48 104.36V98.088H229.568V87.784H222.848V98.088H212.936V104.36H222.848V115H229.568V104.36H239.48Z" fill="#1A2578"/>
<path d="M140.944 159.222V154.36H147.984V152.6H139.096V168H148.116V166.24H140.944V160.982H147.456V159.222H140.944ZM161.469 157.572C160.633 157.572 159.973 157.77 159.467 158.166C158.961 158.562 158.587 158.98 158.367 159.464C158.059 158.782 157.619 158.298 157.047 158.012C156.453 157.726 155.859 157.572 155.243 157.572C154.847 157.572 154.495 157.638 154.187 157.726C153.879 157.836 153.593 157.968 153.373 158.144C153.131 158.32 152.933 158.496 152.779 158.716C152.603 158.936 152.471 159.134 152.383 159.332V157.836H150.667V168H152.515V160.916C152.603 160.74 152.713 160.542 152.845 160.344C152.977 160.146 153.131 159.97 153.307 159.816C153.483 159.662 153.703 159.53 153.945 159.442C154.187 159.354 154.473 159.288 154.781 159.288C155.375 159.288 155.881 159.508 156.277 159.904C156.673 160.3 156.871 160.916 156.871 161.752V168H158.719V160.916C158.895 160.52 159.181 160.168 159.533 159.816C159.885 159.464 160.347 159.288 160.963 159.288C161.579 159.288 162.085 159.508 162.481 159.904C162.877 160.3 163.075 160.916 163.075 161.752V168H164.923V161.466C164.923 160.212 164.593 159.244 163.955 158.584C163.295 157.924 162.481 157.572 161.469 157.572ZM169.595 164.81V161.026C169.727 160.828 169.881 160.63 170.057 160.41C170.233 160.212 170.453 160.036 170.717 159.86C170.959 159.684 171.245 159.552 171.553 159.442C171.861 159.354 172.213 159.288 172.609 159.288C173.093 159.288 173.555 159.398 173.973 159.574C174.391 159.772 174.743 160.036 175.029 160.366C175.315 160.696 175.535 161.07 175.711 161.51C175.865 161.95 175.953 162.434 175.953 162.918C175.953 163.424 175.865 163.886 175.711 164.326C175.535 164.766 175.315 165.162 175.029 165.492C174.743 165.822 174.391 166.086 173.973 166.262C173.555 166.46 173.093 166.548 172.609 166.548C172.213 166.548 171.861 166.504 171.553 166.394C171.245 166.306 170.959 166.174 170.717 165.998C170.453 165.822 170.233 165.646 170.057 165.426C169.881 165.228 169.727 165.03 169.595 164.81ZM169.441 157.836H167.747V173.06H169.595V166.746C169.683 166.878 169.815 167.01 169.991 167.186C170.167 167.362 170.387 167.516 170.651 167.67C170.915 167.846 171.245 167.978 171.619 168.088C171.971 168.22 172.389 168.264 172.873 168.264C173.555 168.264 174.193 168.132 174.809 167.846C175.403 167.582 175.931 167.208 176.371 166.724C176.811 166.24 177.141 165.69 177.405 165.03C177.669 164.37 177.801 163.666 177.801 162.918C177.801 162.17 177.669 161.488 177.405 160.828C177.141 160.168 176.811 159.618 176.371 159.134C175.931 158.65 175.403 158.276 174.809 157.99C174.193 157.726 173.555 157.572 172.873 157.572C172.037 157.572 171.311 157.77 170.739 158.122C170.167 158.474 169.727 158.87 169.441 159.31V157.836ZM180.303 151.368V168H182.151V151.368H180.303ZM189.896 166.548C189.368 166.548 188.906 166.46 188.488 166.262C188.07 166.086 187.718 165.822 187.432 165.492C187.124 165.162 186.904 164.766 186.75 164.326C186.574 163.886 186.508 163.424 186.508 162.918C186.508 162.434 186.574 161.95 186.75 161.51C186.904 161.07 187.124 160.696 187.432 160.366C187.718 160.036 188.07 159.772 188.488 159.574C188.906 159.398 189.368 159.288 189.896 159.288C190.402 159.288 190.864 159.398 191.282 159.574C191.7 159.772 192.052 160.036 192.36 160.366C192.646 160.696 192.866 161.07 193.042 161.51C193.196 161.95 193.284 162.434 193.284 162.918C193.284 163.424 193.196 163.886 193.042 164.326C192.866 164.766 192.646 165.162 192.36 165.492C192.052 165.822 191.7 166.086 191.282 166.262C190.864 166.46 190.402 166.548 189.896 166.548ZM189.896 157.572C189.148 157.572 188.444 157.726 187.806 157.99C187.168 158.276 186.618 158.65 186.156 159.134C185.672 159.618 185.32 160.168 185.056 160.828C184.792 161.488 184.66 162.17 184.66 162.918C184.66 163.666 184.792 164.37 185.056 165.03C185.32 165.69 185.672 166.24 186.156 166.724C186.618 167.208 187.168 167.582 187.806 167.846C188.444 168.132 189.148 168.264 189.896 168.264C190.644 168.264 191.326 168.132 191.964 167.846C192.602 167.582 193.152 167.208 193.636 166.724C194.098 166.24 194.472 165.69 194.736 165.03C195 164.37 195.132 163.666 195.132 162.918C195.132 162.17 195 161.488 194.736 160.828C194.472 160.168 194.098 159.618 193.636 159.134C193.152 158.65 192.602 158.276 191.964 157.99C191.326 157.726 190.644 157.572 189.896 157.572ZM197.223 171.08L196.431 172.598C196.651 172.774 196.937 172.928 197.311 173.082C197.685 173.258 198.103 173.324 198.587 173.324C199.115 173.324 199.643 173.17 200.171 172.862C200.699 172.554 201.095 172.026 201.403 171.278L201.689 170.53L202.327 168.924L203.207 166.768L204.175 164.326L206.749 157.836H204.747L201.711 165.866L198.147 157.836H196.057L200.809 168.044L200.017 170.046C199.797 170.552 199.599 170.948 199.379 171.212C199.159 171.476 198.851 171.608 198.477 171.608C198.081 171.608 197.663 171.432 197.223 171.08ZM215.769 162.038H209.389C209.411 161.774 209.499 161.488 209.631 161.158C209.763 160.85 209.961 160.542 210.225 160.278C210.489 160.014 210.797 159.772 211.193 159.574C211.589 159.398 212.051 159.288 212.601 159.288C213.129 159.288 213.569 159.376 213.965 159.552C214.361 159.728 214.669 159.97 214.933 160.234C215.197 160.52 215.395 160.828 215.527 161.136C215.659 161.466 215.747 161.774 215.769 162.038ZM212.601 157.572C211.831 157.572 211.127 157.726 210.511 157.99C209.895 158.276 209.367 158.65 208.927 159.134C208.487 159.618 208.135 160.19 207.893 160.828C207.651 161.488 207.541 162.17 207.541 162.874C207.541 163.644 207.673 164.348 207.937 165.008C208.201 165.668 208.553 166.24 209.015 166.724C209.477 167.208 210.027 167.604 210.687 167.868C211.325 168.132 212.029 168.264 212.777 168.264C213.261 168.264 213.723 168.22 214.163 168.11C214.581 168 214.977 167.846 215.329 167.648C215.681 167.472 216.011 167.252 216.297 167.01C216.583 166.768 216.847 166.526 217.067 166.262L215.901 165.052C215.593 165.448 215.197 165.778 214.669 166.086C214.141 166.394 213.547 166.548 212.843 166.548C212.359 166.548 211.897 166.482 211.501 166.306C211.083 166.152 210.731 165.932 210.423 165.646C210.115 165.382 209.851 165.052 209.675 164.7C209.477 164.348 209.367 163.974 209.345 163.578H217.551C217.551 163.468 217.573 163.358 217.573 163.27V162.984C217.573 162.17 217.441 161.422 217.199 160.762C216.935 160.102 216.605 159.53 216.165 159.046C215.725 158.584 215.197 158.232 214.581 157.968C213.965 157.704 213.305 157.572 212.601 157.572ZM227.199 162.038H220.819C220.841 161.774 220.929 161.488 221.061 161.158C221.193 160.85 221.391 160.542 221.655 160.278C221.919 160.014 222.227 159.772 222.623 159.574C223.019 159.398 223.481 159.288 224.031 159.288C224.559 159.288 224.999 159.376 225.395 159.552C225.791 159.728 226.099 159.97 226.363 160.234C226.627 160.52 226.825 160.828 226.957 161.136C227.089 161.466 227.177 161.774 227.199 162.038ZM224.031 157.572C223.261 157.572 222.557 157.726 221.941 157.99C221.325 158.276 220.797 158.65 220.357 159.134C219.917 159.618 219.565 160.19 219.323 160.828C219.081 161.488 218.971 162.17 218.971 162.874C218.971 163.644 219.103 164.348 219.367 165.008C219.631 165.668 219.983 166.24 220.445 166.724C220.907 167.208 221.457 167.604 222.117 167.868C222.755 168.132 223.459 168.264 224.207 168.264C224.691 168.264 225.153 168.22 225.593 168.11C226.011 168 226.407 167.846 226.759 167.648C227.111 167.472 227.441 167.252 227.727 167.01C228.013 166.768 228.277 166.526 228.497 166.262L227.331 165.052C227.023 165.448 226.627 165.778 226.099 166.086C225.571 166.394 224.977 166.548 224.273 166.548C223.789 166.548 223.327 166.482 222.931 166.306C222.513 166.152 222.161 165.932 221.853 165.646C221.545 165.382 221.281 165.052 221.105 164.7C220.907 164.348 220.797 163.974 220.775 163.578H228.981C228.981 163.468 229.003 163.358 229.003 163.27V162.984C229.003 162.17 228.871 161.422 228.629 160.762C228.365 160.102 228.035 159.53 227.595 159.046C227.155 158.584 226.627 158.232 226.011 157.968C225.395 157.704 224.735 157.572 224.031 157.572ZM231.72 164.942L230.444 166.13C230.62 166.394 230.862 166.658 231.17 166.9C231.456 167.164 231.786 167.384 232.16 167.582C232.512 167.802 232.93 167.956 233.37 168.088C233.81 168.22 234.294 168.264 234.822 168.264C235.306 168.264 235.79 168.22 236.274 168.088C236.758 167.956 237.176 167.78 237.55 167.516C237.924 167.274 238.232 166.966 238.474 166.57C238.694 166.174 238.826 165.712 238.826 165.184C238.826 164.656 238.694 164.216 238.474 163.864C238.232 163.512 237.946 163.204 237.594 162.962C237.242 162.742 236.846 162.544 236.428 162.412C236.01 162.28 235.614 162.17 235.24 162.082C234.932 162.016 234.624 161.95 234.338 161.862C234.03 161.774 233.766 161.686 233.546 161.576C233.304 161.466 233.106 161.334 232.974 161.158C232.842 161.004 232.776 160.806 232.776 160.564C232.776 160.234 232.93 159.926 233.26 159.662C233.568 159.398 234.052 159.244 234.668 159.244C235.284 159.244 235.79 159.376 236.23 159.618C236.648 159.86 237 160.102 237.264 160.366L238.474 159.112C238.1 158.738 237.594 158.386 236.956 158.056C236.318 157.748 235.57 157.572 234.712 157.572C234.14 157.572 233.612 157.66 233.172 157.814C232.71 157.99 232.314 158.21 231.984 158.474C231.654 158.76 231.412 159.09 231.236 159.464C231.06 159.838 230.972 160.234 230.972 160.63C230.972 161.158 231.104 161.62 231.368 161.972C231.632 162.346 231.94 162.654 232.336 162.874C232.71 163.094 233.106 163.27 233.546 163.402C233.964 163.534 234.338 163.644 234.69 163.71C234.954 163.776 235.218 163.842 235.482 163.908C235.746 163.996 236.01 164.084 236.23 164.194C236.45 164.326 236.648 164.458 236.78 164.634C236.912 164.81 237 165.03 237 165.25C237 165.514 236.912 165.712 236.78 165.888C236.648 166.064 236.472 166.196 236.252 166.306C236.032 166.416 235.812 166.482 235.548 166.526C235.284 166.57 235.042 166.592 234.822 166.592C234.426 166.592 234.074 166.548 233.766 166.438C233.458 166.35 233.172 166.218 232.908 166.042C232.644 165.888 232.402 165.712 232.204 165.514C232.006 165.338 231.852 165.14 231.72 164.942Z" fill="#484C63"/>
<path d="M302.5 353C338.675 353 368 323.227 368 286.5C368 249.773 338.675 220 302.5 220C266.325 220 237 249.773 237 286.5C237 323.227 266.325 353 302.5 353Z" fill="url(#paint0_linear_1_89960)"/>
<path d="M190.5 327C226.675 327 256 297.227 256 260.5C256 223.773 226.675 194 190.5 194C154.325 194 125 223.773 125 260.5C125 297.227 154.325 327 190.5 327Z" fill="url(#paint1_linear_1_89960)"/>
<path d="M92.5 360C128.675 360 158 330.227 158 293.5C158 256.773 128.675 227 92.5 227C56.3254 227 27 256.773 27 293.5C27 330.227 56.3254 360 92.5 360Z" fill="url(#paint2_linear_1_89960)"/>
<path d="M84.9968 245.136C84.9968 245.136 85.6862 241.777 89.3714 241.103C93.0567 240.429 95.6581 243.33 100.149 242.279C104.639 241.228 109.416 243.33 109.32 248.581C109.225 253.831 111.899 256.033 115.338 258.613C118.778 261.193 115.244 264.285 114.479 267.739C113.714 271.194 120.087 269.91 119.351 274.472C117.253 287.474 81.6883 283.848 76.0734 280.093C72.881 277.96 70.78 274.758 73.0234 271.319C75.2668 267.879 76.1365 272.831 74.8307 263.443C74.3178 259.754 78.7731 257.015 79.5596 254.432C80.346 251.85 79.2017 245.688 84.9968 245.136Z" fill="#120283"/>
<path d="M114.434 346.292C113.349 346.703 112.257 347.09 111.157 347.452C96.6415 352.261 81.492 353.163 81.492 353.163L79.0368 351.886L74.1605 349.35L54.7295 339.244V316.266C54.7295 316.266 54.8643 298.566 72.8787 291.58C74.3152 291.026 75.7852 290.563 77.2799 290.194C78.9689 289.773 80.6813 289.454 82.4082 289.236L108.207 289.123C108.207 289.123 109.845 289.32 112.333 290.022C115.024 290.779 117.629 291.813 120.106 293.108C127.891 297.193 136.731 305.306 137.313 321.144C137.783 333.884 126.787 341.625 114.434 346.292Z" fill="#E8ECF8"/>
<path d="M79.0417 351.886L74.1654 349.35L54.7344 339.244V316.266C54.7344 316.266 54.8692 298.566 72.8836 291.58C74.3201 291.026 75.7901 290.563 77.2848 290.194C77.2848 290.194 78.2716 335.35 79.0417 351.886Z" fill="#120283"/>
<path d="M114.433 346.292C113.349 346.703 112.257 347.09 111.156 347.452C111.581 327.02 112.335 290.02 112.335 290.02C120.174 292.224 136.516 299.412 137.315 321.142C137.784 333.884 126.786 341.625 114.433 346.292Z" fill="#120283"/>
<path d="M108.212 289.12C105.355 291.498 102.586 292.943 99.978 293.73H99.9604C91.3623 296.309 84.5097 291.689 81.8428 289.453C82.0356 289.38 82.2285 289.305 82.4188 289.228C82.9196 289.028 83.4027 288.786 83.8631 288.505C90.659 284.337 89.4226 272.888 89.4226 272.888H101.489C101.354 274.501 101.37 276.124 101.538 277.734C101.935 281.719 103.407 287.035 108.212 289.12Z" fill="#E8ECF8"/>
<path d="M120.108 293.105C117.676 295.058 115.088 296.81 112.372 298.342C95.6177 307.691 83.4616 301.299 77.3476 296.185C74.4223 293.737 72.8809 291.58 72.8809 291.58C74.3169 291.026 75.7865 290.563 77.2808 290.194C78.0748 289.995 78.897 289.815 79.7473 289.654C80.3598 289.539 80.9875 289.435 81.6303 289.343C81.8887 289.304 82.1483 289.27 82.4104 289.235L108.209 289.124C108.209 289.124 108.606 289.17 109.308 289.304C109.751 289.389 110.316 289.506 110.985 289.67C111.399 289.77 111.85 289.888 112.336 290.024C115.027 290.778 117.631 291.811 120.108 293.105Z" fill="#E8ECF8"/>
<path d="M112.371 298.342C95.6173 307.69 83.4612 301.299 77.3472 296.184C78.3857 294.896 79.5314 292.794 79.7418 289.652C80.3544 289.536 80.982 289.432 81.6248 289.341C81.2051 291.37 80.701 296.792 86.147 300.289C92.9529 304.66 105.134 302.295 107.356 298.283C109.084 295.158 109.293 290.995 109.302 289.301C109.746 289.386 110.311 289.503 110.98 289.667C110.694 291.394 110.313 295.414 112.371 298.342Z" fill="#120283"/>
<path d="M101.532 277.738C100.826 278.946 99.8142 279.8 98.3811 279.919C92.7586 280.387 89.5963 274.863 89.6631 274.354L89.9543 272.892H101.484C101.348 274.505 101.364 276.127 101.532 277.738Z" fill="#120283"/>
<path d="M109.101 262.331C109.101 260.757 107.988 259.479 106.615 259.479C105.243 259.479 104.13 260.757 104.13 262.331C104.13 263.905 105.243 265.886 106.615 265.886C107.988 265.886 109.101 263.906 109.101 262.331Z" fill="#E8ECF8"/>
<path d="M105.963 263.309L105.788 263.291C105.788 263.273 106.001 261.412 107.727 261.367V261.543C106.158 261.584 105.964 263.291 105.963 263.309Z" fill="#120283"/>
<path d="M107.665 263.044C107.372 262.741 107.072 262.597 106.773 262.612C106.319 262.639 106.017 263.033 106.009 263.037L105.869 262.93C105.884 262.911 106.227 262.468 106.76 262.437C107.119 262.417 107.461 262.579 107.792 262.922L107.665 263.044Z" fill="#120283"/>
<path d="M81.4922 262.331C81.4922 260.757 82.6051 259.479 83.9776 259.479C85.3501 259.479 86.463 260.757 86.463 262.331C86.463 263.905 85.3501 265.886 83.9776 265.886C82.6051 265.886 81.4922 263.906 81.4922 262.331Z" fill="#E8ECF8"/>
<path d="M84.909 263.309L85.0842 263.291C85.0842 263.273 84.8712 261.412 83.1445 261.367V261.543C84.7137 261.584 84.9078 263.291 84.909 263.309Z" fill="#120283"/>
<path d="M83.2051 263.044C83.4988 262.741 83.8 262.597 84.0987 262.612C84.5512 262.639 84.8549 263.033 84.8625 263.037L85.0011 262.93C84.9873 262.911 84.6444 262.468 84.1113 262.437C83.7509 262.417 83.4106 262.579 83.0791 262.922L83.2051 263.044Z" fill="#120283"/>
<path d="M102.405 273.282C100.564 275.397 98.2322 276.76 95.4354 276.714C92.6424 276.76 90.3083 275.397 88.4669 273.282C88.457 273.268 88.446 273.255 88.4341 273.243C85.1357 269.074 84.4639 263.001 85.3575 255.771C86.0003 250.571 90.9032 248.554 93.6268 247.831C94.812 247.515 96.0589 247.515 97.2441 247.831C99.9677 248.555 104.872 250.572 105.515 255.771C106.411 263.024 105.733 269.115 102.405 273.282Z" fill="#E8ECF8"/>
<path d="M99.199 263.033C99.5289 263.033 99.7964 262.765 99.7964 262.436C99.7964 262.106 99.5289 261.838 99.199 261.838C98.869 261.838 98.6016 262.106 98.6016 262.436C98.6016 262.765 98.869 263.033 99.199 263.033Z" fill="#120283"/>
<path d="M91.2937 263.033C91.6236 263.033 91.8911 262.765 91.8911 262.436C91.8911 262.106 91.6236 261.838 91.2937 261.838C90.9638 261.838 90.6963 262.106 90.6963 262.436C90.6963 262.765 90.9638 263.033 91.2937 263.033Z" fill="#120283"/>
<path d="M103.031 257.268C103.031 257.268 101.469 257.309 99.4174 257.319C97.3656 257.329 96.8375 257.309 97.0228 256.782C97.208 256.255 99.2636 256.266 100.552 256.448C101.415 256.595 102.25 256.872 103.031 257.268Z" fill="#120283"/>
<path d="M87.3237 257.268C87.3237 257.268 88.8853 257.309 90.9359 257.319C92.9865 257.329 93.5159 257.309 93.3306 256.782C93.1453 256.255 91.0897 256.266 89.8016 256.448C88.9391 256.595 88.1037 256.872 87.3237 257.268Z" fill="#120283"/>
<path d="M95.0344 266.634C94.8201 266.634 94.6071 266.6 94.4899 266.49C94.4499 266.453 94.4202 266.405 94.4036 266.353C94.3871 266.301 94.3842 266.245 94.3954 266.191C94.4823 265.642 94.8025 263.461 94.805 263.44L94.979 263.465C94.979 263.487 94.6563 265.668 94.5693 266.218C94.5624 266.243 94.5625 266.27 94.5696 266.295C94.5767 266.321 94.5905 266.343 94.6097 266.362C94.7723 266.514 95.3419 266.456 95.6634 266.383L95.7024 266.554C95.483 266.603 95.2592 266.63 95.0344 266.634Z" fill="#120283"/>
<path d="M96.1841 268.012C95.9255 268.015 95.6674 267.987 95.4153 267.929C95.4049 267.927 95.3951 267.922 95.3865 267.915C95.3779 267.909 95.3707 267.901 95.3652 267.891C95.3598 267.882 95.3562 267.872 95.3548 267.861C95.3533 267.85 95.3539 267.84 95.3567 267.829C95.3594 267.819 95.3642 267.809 95.3707 267.8C95.3772 267.792 95.3853 267.785 95.3946 267.779C95.404 267.774 95.4142 267.77 95.4249 267.769C95.4356 267.767 95.4465 267.768 95.4569 267.771C96.1314 267.911 96.8324 267.852 97.4735 267.599C97.4834 267.595 97.4941 267.593 97.5048 267.593C97.5156 267.592 97.5263 267.594 97.5363 267.599C97.5464 267.603 97.5555 267.609 97.5632 267.616C97.5709 267.624 97.577 267.633 97.5812 267.643C97.5854 267.653 97.5877 267.663 97.5878 267.674C97.5879 267.685 97.5858 267.695 97.5818 267.705C97.5778 267.715 97.5718 267.725 97.5642 267.732C97.5567 267.74 97.5477 267.746 97.5377 267.75C97.1082 267.926 96.6482 268.015 96.1841 268.012Z" fill="#120283"/>
<path d="M105.622 253.2L105.302 269.263L106.227 259.127C106.227 259.127 109.094 255.308 105.622 253.2Z" fill="#120283"/>
<path d="M85.4129 253.914L85.5692 269.263L84.6453 259.127C84.6453 259.127 81.943 256.023 85.4129 253.914Z" fill="#120283"/>
<path d="M136.86 326.227C135.291 333.207 129.94 338.405 123.141 342.267C122.36 342.71 121.562 343.137 120.747 343.546C118.691 344.568 116.584 345.485 114.435 346.292C113.646 330.671 112.631 299.358 112.335 290.02C120.177 292.224 136.513 299.415 137.31 321.139C137.38 322.848 137.229 324.558 136.86 326.227Z" fill="#BF0830"/>
<path d="M77.2809 290.191L74.1666 349.35L69.3545 346.848L66.6385 345.435L54.7344 339.246V316.264C54.7344 316.264 54.8907 295.788 77.2809 290.191Z" fill="#BF0830"/>
<path d="M85.4542 256.823C85.4542 256.823 85.8184 253.574 87.3233 251.806C87.3233 251.806 91.7774 249.073 103.03 251.806C103.03 251.806 105.195 253.096 105.522 256.823C105.522 256.823 107.02 252.9 104.835 248.059C102.649 243.218 90.4591 243.356 87.8917 245.872C85.3244 248.388 81.7676 253.721 85.4542 256.823Z" fill="#120283"/>
<path d="M123.142 342.267C122.36 342.71 121.562 343.137 120.747 343.546L117.254 297.382C117.37 298.452 120.466 326.679 123.142 342.267Z" fill="#EF9143"/>
<path d="M66.6387 345.435C69.4228 330.904 72.9719 298.528 73.098 297.383L69.3547 346.848L66.6387 345.435Z" fill="#EF9143"/>
<path d="M79.7031 303.116C79.7031 303.116 93.7473 313.899 110.371 303.116C110.371 303.116 95.8975 317.766 79.7031 303.116Z" fill="#EDEDED"/>
<path d="M83.8589 334.754C83.8589 334.754 100.053 329.309 109.225 314.118C109.22 314.118 100.197 335.327 83.8589 334.754Z" fill="#EDEDED"/>
<path d="M87.3232 251.806C87.3232 251.806 92.6722 249.271 92.9596 252.711C93.2469 256.15 95.6429 257.878 98.5997 256.336C101.556 254.793 102.847 255.579 102.203 258.226C101.559 260.873 104.428 260.901 107.793 258.226C111.158 255.552 104.694 250.201 104.129 249.915C103.564 249.629 102 246.189 97.5876 246.834C93.1751 247.479 87.3232 251.806 87.3232 251.806Z" fill="#120283"/>
<path d="M189.125 229.023V259.256C186.83 262.072 183.279 265.613 180.246 265.106C175.305 264.277 174.034 257.805 172.141 248.052C170.249 238.299 176.107 228.467 189.125 229.023Z" fill="#120283"/>
<path d="M189.125 229.023V259.256C191.421 262.072 194.973 265.613 198.004 265.106C202.945 264.277 204.216 257.805 206.109 248.052C208.002 238.299 202.151 228.467 189.125 229.023Z" fill="#120283"/>
<path d="M236.445 339.517C236.445 339.6 236.445 339.682 236.445 339.763C236.315 339.978 236.184 340.187 236.045 340.399C235.971 340.512 235.897 340.624 235.824 340.739C233.545 344.138 230.421 347.08 226.772 349.619C226.468 349.831 226.158 350.043 225.845 350.247C225.562 350.437 225.275 350.622 224.984 350.806C224.461 351.14 223.93 351.464 223.391 351.778C213.002 357.873 199.621 361.302 189.169 363.19C179.523 364.93 172.369 365.352 172.369 365.352L158.565 358.175L154.849 356.241L149.578 353.509L144.86 351.057L144.415 350.827L142.743 349.957L140 348.53V320.758C140 320.758 140 320.559 140.021 320.195C140.034 319.977 140.052 319.7 140.081 319.369C140.081 319.32 140.089 319.271 140.095 319.221C140.173 318.361 140.317 317.177 140.581 315.766C140.923 313.943 141.389 312.145 141.976 310.385C142.063 310.124 142.158 309.857 142.253 309.589C143.342 306.504 144.838 303.578 146.699 300.887C146.88 300.63 147.062 300.374 147.253 300.117C149.708 296.786 152.768 293.946 156.273 291.745C156.665 291.496 157.072 291.252 157.487 291.015C159.033 290.128 160.641 289.355 162.299 288.7C163.401 288.263 164.559 287.863 165.773 287.501C166.958 287.151 168.197 286.84 169.488 286.569C169.706 286.524 169.924 286.48 170.146 286.438C171.21 286.231 172.314 286.053 173.457 285.906L204.632 285.774L204.747 285.81C205.087 285.914 206.151 286.254 207.692 286.837L207.771 286.868L207.87 286.907C207.908 286.92 207.956 286.938 208.008 286.961C208.365 287.101 208.749 287.258 209.146 287.406C210.248 287.858 211.502 288.406 212.851 289.058C214.037 289.636 215.304 290.293 216.595 291.033C217.009 291.27 217.425 291.517 217.842 291.774C221.388 293.926 225.059 296.691 228.031 300.137C228.251 300.386 228.466 300.641 228.673 300.898C230.81 303.476 232.421 306.446 233.416 309.642C233.502 309.908 233.586 310.178 233.669 310.45C234.268 312.48 234.742 314.545 235.089 316.633C235.196 317.242 235.292 317.86 235.385 318.483C235.433 318.813 235.48 319.145 235.523 319.479C235.559 319.752 235.594 320.025 235.628 320.3C235.727 321.079 235.814 321.866 235.889 322.661C236.113 324.919 236.261 327.208 236.355 329.457C236.366 329.736 236.377 330.012 236.389 330.289C236.501 333.527 236.501 336.673 236.445 339.517Z" fill="#120283"/>
<path d="M149.913 325.952C149.716 325.766 149.455 325.662 149.184 325.662C148.913 325.662 148.652 325.766 148.455 325.952C147.77 326.603 146.848 327.583 146.848 328.153C146.848 328.724 147.8 329.736 148.487 330.387C148.676 330.564 148.925 330.662 149.184 330.662C149.443 330.662 149.692 330.564 149.88 330.387C150.568 329.736 151.521 328.734 151.521 328.153C151.521 327.572 150.598 326.603 149.913 325.952Z" fill="#B036CE"/>
<path d="M165.11 325.952C165.023 325.861 164.917 325.788 164.801 325.738C164.684 325.688 164.558 325.662 164.431 325.662C164.305 325.662 164.179 325.688 164.062 325.738C163.946 325.788 163.84 325.861 163.753 325.952C163.115 326.603 162.257 327.582 162.257 328.153C162.257 328.724 163.147 329.736 163.784 330.387C163.868 330.474 163.968 330.543 164.079 330.591C164.191 330.638 164.311 330.662 164.431 330.662C164.552 330.662 164.672 330.638 164.783 330.591C164.895 330.543 164.995 330.474 165.079 330.387C165.719 329.736 166.606 328.734 166.606 328.153C166.606 327.572 165.748 326.603 165.11 325.952Z" fill="#B036CE"/>
<path d="M180.584 325.952C180.388 325.766 180.127 325.662 179.856 325.662C179.585 325.662 179.324 325.766 179.128 325.952C178.441 326.603 177.52 327.582 177.52 328.153C177.52 328.724 178.471 329.736 179.16 330.387C179.349 330.563 179.597 330.662 179.856 330.662C180.114 330.662 180.363 330.563 180.552 330.387C181.241 329.736 182.192 328.734 182.192 328.153C182.192 327.572 181.271 326.603 180.584 325.952Z" fill="#B036CE"/>
<path d="M195.781 325.952C195.693 325.861 195.588 325.788 195.471 325.738C195.355 325.688 195.229 325.663 195.103 325.663C194.976 325.663 194.85 325.688 194.734 325.738C194.617 325.788 194.512 325.861 194.425 325.952C193.786 326.603 192.928 327.583 192.928 328.153C192.928 328.724 193.817 329.736 194.454 330.387C194.538 330.474 194.639 330.543 194.75 330.591C194.861 330.638 194.981 330.663 195.102 330.663C195.223 330.663 195.343 330.638 195.454 330.591C195.565 330.543 195.666 330.474 195.75 330.387C196.391 329.736 197.276 328.734 197.276 328.153C197.276 327.572 196.418 326.603 195.781 325.952Z" fill="#B036CE"/>
<path d="M211.254 325.952C211.058 325.766 210.797 325.662 210.526 325.662C210.255 325.662 209.994 325.766 209.797 325.952C209.111 326.603 208.189 327.582 208.189 328.153C208.189 328.724 209.141 329.736 209.83 330.387C210.019 330.563 210.267 330.662 210.526 330.662C210.784 330.662 211.033 330.563 211.222 330.387C211.911 329.736 212.862 328.734 212.862 328.153C212.862 327.572 211.94 326.603 211.254 325.952Z" fill="#B036CE"/>
<path d="M226.452 325.952C226.364 325.861 226.259 325.788 226.142 325.738C226.026 325.688 225.9 325.663 225.774 325.663C225.647 325.663 225.521 325.688 225.405 325.738C225.288 325.788 225.183 325.861 225.095 325.952C224.458 326.603 223.6 327.583 223.6 328.153C223.6 328.724 224.489 329.736 225.127 330.387C225.21 330.474 225.311 330.543 225.422 330.591C225.534 330.638 225.653 330.663 225.774 330.663C225.895 330.663 226.015 330.638 226.126 330.591C226.238 330.543 226.338 330.474 226.422 330.387C227.062 329.736 227.948 328.734 227.948 328.153C227.948 327.572 227.089 326.603 226.452 325.952Z" fill="#B036CE"/>
<path d="M143.638 317.764C143.638 318.344 142.749 319.347 142.113 319.998C142.03 320.086 141.93 320.156 141.818 320.204C141.707 320.253 141.587 320.278 141.465 320.278C141.344 320.278 141.224 320.253 141.113 320.204C141.001 320.156 140.901 320.086 140.818 319.998C140.593 319.769 140.341 319.5 140.106 319.221C140.185 318.361 140.329 317.177 140.593 315.766L140.787 315.565C140.874 315.473 140.98 315.4 141.096 315.351C141.213 315.301 141.338 315.275 141.465 315.275C141.591 315.275 141.717 315.301 141.833 315.351C141.95 315.4 142.055 315.473 142.143 315.565C142.78 316.214 143.638 317.195 143.638 317.764Z" fill="#B036CE"/>
<path d="M157.619 315.563C157.422 315.377 157.161 315.273 156.889 315.273C156.618 315.273 156.357 315.377 156.16 315.563C155.476 316.214 154.552 317.193 154.552 317.766C154.552 318.338 155.505 319.348 156.193 319.997C156.381 320.175 156.63 320.274 156.889 320.274C157.148 320.274 157.398 320.175 157.586 319.997C158.274 319.348 159.225 318.345 159.225 317.766C159.225 317.186 158.303 316.214 157.619 315.563Z" fill="#B036CE"/>
<path d="M172.814 315.563C172.726 315.472 172.621 315.399 172.504 315.349C172.388 315.299 172.263 315.273 172.136 315.273C172.009 315.273 171.884 315.299 171.767 315.349C171.651 315.399 171.545 315.472 171.458 315.563C170.82 316.214 169.962 317.193 169.962 317.766C169.962 318.338 170.852 319.348 171.489 319.997C171.572 320.086 171.672 320.156 171.784 320.204C171.895 320.252 172.015 320.277 172.137 320.277C172.258 320.277 172.378 320.252 172.489 320.204C172.601 320.156 172.701 320.086 172.784 319.997C173.424 319.348 174.311 318.345 174.311 317.766C174.311 317.186 173.453 316.214 172.814 315.563Z" fill="#B036CE"/>
<path d="M188.289 315.563C188.092 315.377 187.832 315.273 187.56 315.273C187.289 315.273 187.028 315.377 186.831 315.563C186.146 316.214 185.225 317.193 185.225 317.766C185.225 318.338 186.176 319.348 186.864 319.997C187.052 320.175 187.301 320.274 187.56 320.274C187.819 320.274 188.068 320.175 188.257 319.997C188.945 319.348 189.896 318.345 189.896 317.766C189.896 317.186 188.974 316.214 188.289 315.563Z" fill="#B036CE"/>
<path d="M203.486 315.563C203.399 315.472 203.293 315.399 203.176 315.349C203.06 315.299 202.934 315.273 202.807 315.273C202.681 315.273 202.555 315.299 202.438 315.349C202.322 315.399 202.216 315.472 202.129 315.563C201.491 316.214 200.633 317.194 200.633 317.766C200.633 318.338 201.523 319.348 202.16 319.998C202.243 320.086 202.343 320.156 202.455 320.204C202.566 320.253 202.686 320.277 202.807 320.277C202.929 320.277 203.049 320.253 203.16 320.204C203.272 320.156 203.372 320.086 203.455 319.998C204.095 319.348 204.982 318.345 204.982 317.766C204.982 317.186 204.118 316.214 203.486 315.563Z" fill="#B036CE"/>
<path d="M218.959 315.563C218.763 315.377 218.502 315.273 218.231 315.273C217.96 315.273 217.699 315.377 217.503 315.563C216.816 316.214 215.895 317.194 215.895 317.766C215.895 318.338 216.846 319.348 217.535 319.998C217.723 320.175 217.972 320.274 218.231 320.274C218.49 320.274 218.739 320.175 218.927 319.998C219.616 319.348 220.567 318.345 220.567 317.766C220.567 317.186 219.646 316.214 218.959 315.563Z" fill="#B036CE"/>
<path d="M235.389 318.477C235.024 319.027 234.602 319.537 234.13 319.997C234.047 320.085 233.946 320.155 233.835 320.202C233.723 320.25 233.603 320.274 233.482 320.274C233.361 320.274 233.241 320.25 233.13 320.202C233.018 320.155 232.917 320.085 232.834 319.997C232.193 319.347 231.307 318.343 231.307 317.764C231.307 317.185 232.165 316.214 232.804 315.563C232.892 315.472 232.997 315.399 233.113 315.349C233.23 315.299 233.355 315.273 233.482 315.273C233.609 315.273 233.734 315.299 233.851 315.349C233.967 315.399 234.072 315.472 234.16 315.563C234.493 315.898 234.806 316.254 235.095 316.627C235.199 317.241 235.295 317.854 235.389 318.477Z" fill="#B036CE"/>
<path d="M149.913 306.358C149.716 306.172 149.455 306.068 149.184 306.068C148.913 306.068 148.652 306.172 148.455 306.358C147.77 307.009 146.848 307.988 146.848 308.56C146.848 309.132 147.8 310.142 148.487 310.792C148.676 310.97 148.925 311.069 149.184 311.069C149.443 311.069 149.692 310.97 149.88 310.792C150.568 310.142 151.521 309.14 151.521 308.56C151.521 307.981 150.598 307.015 149.913 306.358Z" fill="#B036CE"/>
<path d="M165.11 306.358C165.023 306.267 164.917 306.194 164.801 306.144C164.684 306.094 164.558 306.068 164.431 306.068C164.305 306.068 164.179 306.094 164.062 306.144C163.946 306.194 163.84 306.267 163.753 306.358C163.115 307.009 162.257 307.989 162.257 308.561C162.257 309.133 163.147 310.142 163.784 310.793C163.867 310.881 163.967 310.951 164.079 311C164.19 311.048 164.31 311.072 164.431 311.072C164.553 311.072 164.673 311.048 164.784 311C164.896 310.951 164.996 310.881 165.079 310.793C165.719 310.142 166.606 309.14 166.606 308.561C166.606 307.981 165.748 307.015 165.11 306.358Z" fill="#B036CE"/>
<path d="M180.584 306.358C180.388 306.172 180.127 306.068 179.856 306.068C179.585 306.068 179.324 306.172 179.128 306.358C178.441 307.009 177.52 307.989 177.52 308.561C177.52 309.133 178.471 310.142 179.16 310.793C179.348 310.97 179.597 311.069 179.856 311.069C180.115 311.069 180.364 310.97 180.552 310.793C181.241 310.142 182.192 309.14 182.192 308.561C182.192 307.981 181.271 307.015 180.584 306.358Z" fill="#B036CE"/>
<path d="M195.781 306.358C195.693 306.267 195.588 306.194 195.471 306.144C195.355 306.094 195.229 306.068 195.103 306.068C194.976 306.068 194.85 306.094 194.734 306.144C194.617 306.194 194.512 306.267 194.425 306.358C193.786 307.009 192.928 307.989 192.928 308.561C192.928 309.133 193.817 310.142 194.454 310.793C194.537 310.881 194.638 310.951 194.749 310.999C194.86 311.048 194.981 311.072 195.102 311.072C195.223 311.072 195.343 311.048 195.455 310.999C195.566 310.951 195.666 310.881 195.75 310.793C196.391 310.142 197.276 309.14 197.276 308.561C197.276 307.981 196.418 307.015 195.781 306.358Z" fill="#B036CE"/>
<path d="M211.254 306.358C211.058 306.172 210.797 306.068 210.526 306.068C210.255 306.068 209.994 306.172 209.797 306.358C209.111 307.009 208.189 307.989 208.189 308.561C208.189 309.133 209.141 310.142 209.83 310.793C210.018 310.97 210.267 311.069 210.526 311.069C210.785 311.069 211.034 310.97 211.222 310.793C211.911 310.142 212.862 309.14 212.862 308.561C212.862 307.981 211.94 307.015 211.254 306.358Z" fill="#B036CE"/>
<path d="M226.452 306.358C226.364 306.267 226.259 306.194 226.142 306.144C226.026 306.094 225.9 306.068 225.774 306.068C225.647 306.068 225.521 306.094 225.405 306.144C225.288 306.194 225.183 306.267 225.095 306.358C224.458 307.009 223.6 307.989 223.6 308.561C223.6 309.133 224.489 310.142 225.127 310.793C225.21 310.881 225.31 310.951 225.421 310.999C225.533 311.048 225.653 311.072 225.774 311.072C225.896 311.072 226.016 311.048 226.127 310.999C226.238 310.951 226.339 310.881 226.422 310.793C227.062 310.142 227.948 309.14 227.948 308.561C227.948 307.981 227.089 307.015 226.452 306.358Z" fill="#B036CE"/>
<path d="M157.619 295.971C157.422 295.784 157.161 295.679 156.889 295.679C156.618 295.679 156.357 295.784 156.16 295.971C155.476 296.62 154.552 297.601 154.552 298.171C154.552 298.742 155.505 299.754 156.193 300.403C156.381 300.581 156.63 300.68 156.889 300.68C157.148 300.68 157.398 300.581 157.586 300.403C158.274 299.754 159.225 298.751 159.225 298.171C159.225 297.592 158.303 296.62 157.619 295.971Z" fill="#B036CE"/>
<path d="M172.814 295.971C172.726 295.879 172.621 295.805 172.505 295.755C172.388 295.705 172.263 295.68 172.136 295.68C172.009 295.68 171.883 295.705 171.767 295.755C171.65 295.805 171.545 295.879 171.458 295.971C170.82 296.62 169.962 297.601 169.962 298.172C169.962 298.742 170.852 299.754 171.489 300.404C171.572 300.492 171.672 300.562 171.784 300.61C171.895 300.659 172.015 300.683 172.137 300.683C172.258 300.683 172.378 300.659 172.489 300.61C172.601 300.562 172.701 300.492 172.784 300.404C173.424 299.754 174.311 298.751 174.311 298.172C174.311 297.592 173.453 296.62 172.814 295.971Z" fill="#B036CE"/>
<path d="M188.289 295.971C188.093 295.784 187.832 295.679 187.56 295.679C187.289 295.679 187.028 295.784 186.831 295.971C186.146 296.62 185.225 297.601 185.225 298.171C185.225 298.742 186.176 299.754 186.864 300.403C187.052 300.581 187.301 300.68 187.56 300.68C187.819 300.68 188.068 300.581 188.257 300.403C188.945 299.754 189.896 298.751 189.896 298.171C189.896 297.592 188.974 296.62 188.289 295.971Z" fill="#B036CE"/>
<path d="M203.486 295.971C203.399 295.879 203.293 295.805 203.177 295.755C203.06 295.705 202.934 295.68 202.807 295.68C202.68 295.68 202.555 295.705 202.438 295.755C202.321 295.805 202.216 295.879 202.129 295.971C201.491 296.62 200.633 297.601 200.633 298.172C200.633 298.742 201.523 299.754 202.16 300.404C202.243 300.492 202.343 300.562 202.455 300.61C202.566 300.659 202.686 300.683 202.807 300.683C202.929 300.683 203.049 300.659 203.16 300.61C203.272 300.562 203.372 300.492 203.455 300.404C204.095 299.754 204.982 298.751 204.982 298.172C204.982 297.592 204.118 296.62 203.486 295.971Z" fill="#B036CE"/>
<path d="M218.959 295.971C218.763 295.784 218.502 295.68 218.231 295.68C217.96 295.68 217.699 295.784 217.503 295.971C216.816 296.62 215.895 297.601 215.895 298.172C215.895 298.742 216.846 299.754 217.535 300.404C217.723 300.581 217.972 300.68 218.231 300.68C218.49 300.68 218.739 300.581 218.927 300.404C219.616 299.754 220.567 298.751 220.567 298.172C220.567 297.592 219.646 296.62 218.959 295.971Z" fill="#B036CE"/>
<path d="M166.606 288.967C166.606 289.548 165.716 290.549 165.081 291.198C164.997 291.286 164.896 291.356 164.785 291.403C164.673 291.451 164.553 291.475 164.432 291.475C164.311 291.475 164.191 291.451 164.08 291.403C163.968 291.356 163.868 291.286 163.784 291.198C163.142 290.549 162.257 289.548 162.257 288.967C162.259 288.875 162.276 288.784 162.308 288.698C163.41 288.262 164.568 287.862 165.782 287.499C166.225 288.024 166.606 288.587 166.606 288.967Z" fill="#B036CE"/>
<path d="M212.861 289.064C212.766 289.657 211.88 290.585 211.231 291.198C211.043 291.376 210.794 291.475 210.535 291.475C210.276 291.475 210.027 291.376 209.839 291.198C209.15 290.549 208.2 289.548 208.2 288.967C208.2 288.566 208.657 287.962 209.164 287.412C210.257 287.864 211.511 288.412 212.861 289.064Z" fill="#B036CE"/>
<path d="M204.641 285.773C204.429 286.008 189.333 302.7 170.155 286.437C171.219 286.229 172.323 286.052 173.466 285.905L204.641 285.773Z" fill="#120283"/>
<path d="M204.642 285.771C201.189 288.645 197.843 290.391 194.692 291.342H194.67C184.275 294.455 175.996 288.873 172.77 286.175C173.004 286.084 173.238 285.995 173.466 285.9C174.072 285.659 174.656 285.367 175.212 285.026C177.607 283.559 179.176 281.528 180.198 279.394C182.681 274.191 181.932 268.338 181.932 268.338H196.516C196.351 270.288 196.371 272.248 196.576 274.194C196.753 275.946 197.103 277.623 197.761 279.167C198.889 281.868 200.952 284.168 204.642 285.771Z" fill="#E8ECF8"/>
<path d="M196.571 274.19C195.717 275.652 194.496 276.683 192.761 276.828C185.966 277.393 182.143 270.717 182.223 270.1L182.576 268.333H196.507C196.344 270.283 196.365 272.245 196.571 274.19Z" fill="#120283"/>
<path d="M205.722 255.57C205.722 253.667 204.376 252.123 202.718 252.123C201.06 252.123 199.714 253.667 199.714 255.57C199.714 257.473 201.058 259.868 202.718 259.868C204.378 259.868 205.722 257.475 205.722 255.57Z" fill="#E8ECF8"/>
<path d="M201.93 256.752L201.72 256.731C201.72 256.707 201.976 254.46 204.063 254.406V254.618C202.167 254.668 201.933 256.731 201.93 256.752Z" fill="#120283"/>
<path d="M203.99 256.433C203.634 256.066 203.271 255.892 202.91 255.911C202.363 255.943 201.991 256.418 201.988 256.423L201.819 256.294C201.837 256.272 202.25 255.737 202.895 255.701C203.329 255.676 203.741 255.873 204.143 256.286L203.99 256.433Z" fill="#120283"/>
<path d="M172.36 255.57C172.36 253.667 173.704 252.123 175.364 252.123C177.024 252.123 178.366 253.667 178.366 255.57C178.366 257.473 177.022 259.868 175.364 259.868C173.705 259.868 172.36 257.475 172.36 255.57Z" fill="#E8ECF8"/>
<path d="M176.484 256.752L176.695 256.731C176.695 256.707 176.438 254.46 174.353 254.406V254.618C176.248 254.668 176.482 256.731 176.484 256.752Z" fill="#120283"/>
<path d="M174.425 256.433C174.78 256.066 175.143 255.892 175.505 255.911C176.052 255.943 176.422 256.418 176.427 256.423L176.596 256.294C176.578 256.272 176.165 255.737 175.518 255.701C175.084 255.676 174.672 255.873 174.272 256.286L174.425 256.433Z" fill="#120283"/>
<path d="M197.63 268.806C195.407 271.363 192.591 273.009 189.206 272.956C185.83 273.011 183.01 271.364 180.784 268.806C180.772 268.789 180.759 268.773 180.744 268.759C176.757 263.72 175.946 256.381 177.025 247.643C177.802 241.356 183.73 238.92 187.02 238.044C188.452 237.663 189.96 237.663 191.392 238.044C194.684 238.92 200.61 241.356 201.388 247.643C202.472 256.408 201.652 263.768 197.63 268.806Z" fill="#E8ECF8"/>
<path d="M193.755 256.42C194.154 256.42 194.478 256.096 194.478 255.696C194.478 255.297 194.154 254.973 193.755 254.973C193.355 254.973 193.031 255.297 193.031 255.696C193.031 256.096 193.355 256.42 193.755 256.42Z" fill="#120283"/>
<path d="M184.202 256.42C184.601 256.42 184.925 256.096 184.925 255.696C184.925 255.297 184.601 254.973 184.202 254.973C183.802 254.973 183.478 255.297 183.478 255.696C183.478 256.096 183.802 256.42 184.202 256.42Z" fill="#120283"/>
<path d="M197.615 249.687C197.615 249.687 195.879 249.758 193.603 249.776C191.327 249.794 190.737 249.758 190.935 248.835C191.134 247.911 193.425 247.928 194.849 248.242C196.274 248.556 197.615 249.687 197.615 249.687Z" fill="#120283"/>
<path d="M180.171 249.687C180.171 249.687 181.905 249.758 184.183 249.776C186.461 249.794 187.05 249.758 186.851 248.835C186.652 247.911 184.363 247.928 182.937 248.242C181.511 248.556 180.171 249.687 180.171 249.687Z" fill="#120283"/>
<path d="M188.721 260.775C188.462 260.775 188.206 260.734 188.063 260.602C188.015 260.556 187.979 260.499 187.959 260.436C187.94 260.373 187.936 260.305 187.949 260.24C188.055 259.576 188.441 256.941 188.446 256.915L188.655 256.946C188.655 256.972 188.265 259.613 188.16 260.273C188.151 260.303 188.151 260.336 188.16 260.366C188.168 260.397 188.184 260.424 188.207 260.446C188.406 260.63 189.096 260.56 189.482 260.472L189.529 260.679C189.264 260.738 188.993 260.77 188.721 260.775Z" fill="#120283"/>
<path d="M189.446 262.324C189.188 262.327 188.93 262.304 188.677 262.254C188.661 262.251 188.646 262.244 188.633 262.235C188.62 262.226 188.609 262.214 188.6 262.2C188.592 262.186 188.587 262.17 188.585 262.154C188.582 262.138 188.584 262.122 188.588 262.106C188.592 262.091 188.598 262.076 188.608 262.063C188.617 262.05 188.629 262.039 188.643 262.03C188.657 262.022 188.672 262.017 188.688 262.014C188.704 262.012 188.721 262.013 188.736 262.017C188.844 262.043 191.404 262.598 192.738 260.177C192.745 260.163 192.755 260.151 192.768 260.141C192.78 260.131 192.794 260.124 192.809 260.119C192.824 260.115 192.84 260.114 192.855 260.115C192.871 260.117 192.886 260.122 192.899 260.129C192.913 260.137 192.925 260.147 192.935 260.159C192.945 260.171 192.952 260.185 192.957 260.2C192.961 260.215 192.962 260.231 192.961 260.246C192.959 260.262 192.954 260.277 192.947 260.291C191.982 262.037 190.392 262.324 189.446 262.324Z" fill="#120283"/>
<path d="M191.076 262.825C191.045 262.826 191.016 262.816 190.993 262.796C190.971 262.776 190.956 262.748 190.954 262.718C190.951 262.688 190.96 262.658 190.978 262.634C190.997 262.61 191.024 262.594 191.053 262.589C191.231 262.556 191.402 262.492 191.559 262.401C191.572 262.393 191.587 262.388 191.603 262.386C191.618 262.383 191.634 262.384 191.649 262.388C191.664 262.392 191.678 262.399 191.691 262.408C191.703 262.417 191.714 262.429 191.722 262.443C191.738 262.47 191.742 262.502 191.734 262.533C191.727 262.563 191.707 262.589 191.68 262.606C191.5 262.71 191.304 262.783 191.099 262.822L191.076 262.825Z" fill="#120283"/>
<path d="M200.6 243.84L201.394 255.696L202.249 251.695C202.249 251.695 204.794 246.389 200.6 243.84Z" fill="#120283"/>
<path d="M177.813 242.454L176.694 255.693L176.163 251.692C176.163 251.692 173.619 246.389 177.813 242.454Z" fill="#120283"/>
<path d="M204.642 285.771C201.189 288.645 197.843 290.391 194.692 291.342H194.67C184.275 294.455 175.996 288.873 172.77 286.174C173.004 286.084 173.238 285.995 173.466 285.9C174.072 285.659 174.656 285.366 175.212 285.026C177.607 283.558 179.176 281.528 180.198 279.394C183.365 280.52 190.256 282.21 197.755 279.167C198.889 281.867 200.952 284.168 204.642 285.771Z" fill="#E8ECF8"/>
<path d="M204.139 252.535C197.227 256.849 193.793 248.089 193.752 243.841C193.71 239.594 189.206 239.795 189.206 239.795C186.851 239.321 183.586 241.481 184.2 245.693C184.813 249.905 182.237 251.591 179.036 252.602C175.835 253.613 173.896 251.676 173.896 251.676L174.089 250.671C176.016 250.819 180.293 250.591 181.843 246.118C181.738 246.239 179.204 251.422 174.184 250.18L176.693 237.183L189.258 234.07H192.948C192.948 234.07 199.766 236.766 201.716 241.232C203.666 245.697 202.715 250.706 202.715 250.706C199.634 251.437 197.222 246.875 197.153 246.754C199.259 252.101 204.067 251.063 204.067 251.063L204.139 252.535Z" fill="#120283"/>
<path d="M283.418 241.763C283.418 241.763 292.433 237.392 297.253 247.87C302.074 258.348 301 266.985 307.01 271.319C313.02 275.653 310.288 282.212 306.873 286.601C303.459 290.99 293.964 295.628 285.734 291.192C277.505 286.755 271.769 293.003 265.623 286.601C259.476 280.199 259.548 274.171 263.268 269.946C266.987 265.721 268.705 235.837 283.418 241.763Z" fill="#120283"/>
<path d="M328.952 322.402C328.952 322.415 328.952 322.428 328.952 322.441C328.908 323.143 328.86 323.835 328.815 324.519C328.666 326.715 328.51 328.822 328.348 330.838C326.736 350.952 324.66 362 324.66 362H244.163C244.163 362 241.166 344.676 240.403 330.029C240.13 324.782 240.143 319.88 240.684 316.233C241.975 307.566 246.951 302.008 252.46 298.46L252.497 298.435C253.2 297.983 253.913 297.565 254.628 297.177C254.949 297.004 255.267 296.836 255.584 296.673C256.979 295.969 258.414 295.346 259.881 294.809C260.732 294.496 261.56 294.221 262.355 293.979C262.546 293.922 262.734 293.866 262.92 293.813C264.354 293.403 265.652 293.096 266.745 292.874C267.881 292.637 269.029 292.459 270.184 292.339L297.683 292.221H297.705C299.204 292.464 300.69 292.783 302.156 293.178H302.163C303.137 293.433 304.231 293.749 305.405 294.134L305.548 294.18C306.308 294.43 307.1 294.709 307.915 295.018C309.059 295.451 310.247 295.945 311.449 296.509C312.114 296.819 312.783 297.152 313.455 297.508C313.785 297.681 314.114 297.861 314.443 298.046C322.294 302.465 329.754 309.955 328.952 322.402Z" fill="#BF0830"/>
<path d="M297.696 292.227C294.65 294.762 291.698 296.301 288.92 297.144H288.901C279.735 299.894 272.432 294.968 269.588 292.586C269.794 292.508 269.998 292.429 270.203 292.347C270.737 292.134 271.252 291.876 271.742 291.575C278.981 287.132 277.667 274.929 277.667 274.929H290.53C290.386 276.649 290.403 278.378 290.582 280.095C291.015 284.346 292.579 290.006 297.696 292.227Z" fill="#E8ECF8"/>
<path d="M290.576 280.095C289.824 281.383 288.744 282.293 287.217 282.417C281.224 282.914 277.853 277.027 277.929 276.483L278.24 274.925H290.534C290.386 276.646 290.4 278.377 290.576 280.095Z" fill="#120283"/>
<path d="M298.646 263.673C298.646 261.993 297.46 260.633 295.998 260.633C294.535 260.633 293.348 261.999 293.348 263.673C293.348 265.348 294.533 267.463 295.998 267.463C297.462 267.463 298.646 265.359 298.646 263.673Z" fill="#E8ECF8"/>
<path d="M295.303 264.714L295.118 264.695C295.118 264.676 295.344 262.694 297.184 262.646V262.833C295.511 262.877 295.305 264.697 295.303 264.714Z" fill="#120283"/>
<path d="M297.119 264.433C296.807 264.109 296.487 263.956 296.163 263.973C295.681 264 295.353 264.421 295.351 264.425L295.202 264.311C295.318 264.166 295.461 264.044 295.624 263.954C295.787 263.864 295.966 263.807 296.151 263.786C296.533 263.765 296.897 263.937 297.251 264.303L297.119 264.433Z" fill="#120283"/>
<path d="M269.225 263.673C269.225 261.993 270.41 260.633 271.873 260.633C273.336 260.633 274.523 261.999 274.523 263.673C274.523 265.348 273.336 267.463 271.873 267.463C270.41 267.463 269.225 265.359 269.225 263.673Z" fill="#E8ECF8"/>
<path d="M272.861 264.714L273.048 264.695C273.048 264.676 272.821 262.694 270.981 262.646V262.833C272.653 262.877 272.859 264.697 272.861 264.714Z" fill="#120283"/>
<path d="M271.046 264.433C271.358 264.109 271.679 263.956 272.002 263.973C272.485 264 272.812 264.421 272.821 264.425L272.97 264.311C272.954 264.291 272.589 263.82 272.014 263.786C271.632 263.765 271.268 263.937 270.915 264.303L271.046 264.433Z" fill="#120283"/>
<path d="M291.509 275.345C289.547 277.601 287.063 279.053 284.081 279.003C281.104 279.053 278.618 277.601 276.653 275.345C276.642 275.331 276.631 275.316 276.618 275.303C273.102 270.86 272.383 264.387 273.34 256.681C274.296 248.95 284.083 247.821 284.083 247.821C284.083 247.821 293.871 248.95 294.826 256.681C295.781 264.413 295.057 270.902 291.509 275.345Z" fill="#E8ECF8"/>
<path d="M287.527 265.153C287.961 265.153 288.312 264.801 288.312 264.367C288.312 263.934 287.961 263.582 287.527 263.582C287.093 263.582 286.741 263.934 286.741 264.367C286.741 264.801 287.093 265.153 287.527 265.153Z" fill="#120283"/>
<path d="M280.02 265.153C280.454 265.153 280.805 264.801 280.805 264.367C280.805 263.934 280.454 263.582 280.02 263.582C279.586 263.582 279.234 263.934 279.234 264.367C279.234 264.801 279.586 265.153 280.02 265.153Z" fill="#120283"/>
<path d="M292.177 258.271C292.177 258.271 290.513 258.315 288.326 258.326C286.139 258.337 285.577 258.315 285.772 257.754C285.967 257.192 288.16 257.207 289.528 257.398C290.45 257.554 291.343 257.848 292.177 258.271Z" fill="#120283"/>
<path d="M275.435 258.271C275.435 258.271 277.1 258.315 279.287 258.326C281.473 258.337 282.036 258.315 281.841 257.754C281.646 257.192 279.452 257.207 278.085 257.398C277.162 257.554 276.269 257.848 275.435 258.271Z" fill="#120283"/>
<path d="M283.654 268.678C283.426 268.678 283.199 268.641 283.073 268.524C283.03 268.484 282.999 268.434 282.981 268.378C282.964 268.322 282.961 268.263 282.973 268.206C283.066 267.621 283.406 265.296 283.411 265.273L283.595 265.3C283.595 265.324 283.251 267.648 283.158 268.236C283.151 268.263 283.151 268.291 283.158 268.317C283.166 268.344 283.18 268.368 283.2 268.387C283.375 268.55 283.982 268.488 284.324 268.411L284.367 268.592C284.133 268.645 283.894 268.674 283.654 268.678Z" fill="#120283"/>
<path d="M284.25 269.338C284.25 269.338 286.237 269.816 287.125 268.86C287.125 268.86 286.737 270.943 284.25 269.338Z" fill="#E8ECF8"/>
<path d="M294.129 253.328L295.112 267.203L295.58 260.258C295.58 260.258 297.828 255.575 294.129 253.328Z" fill="#120283"/>
<path d="M274.034 253.328L273.244 266.82L272.579 260.263C272.579 260.263 270.334 255.575 274.034 253.328Z" fill="#120283"/>
<path d="M273.047 260.266C273.047 260.266 277.734 258.08 280.466 253.328C283.198 248.576 283.286 248.03 285.734 253.698C288.182 259.367 292.114 265.718 297.696 260.633C297.696 260.633 296.515 252.41 294.808 249.606C293.101 246.802 285.781 243.932 284.249 243.932C282.718 243.932 272.709 246.527 272.011 249.259C271.313 251.991 273.047 260.266 273.047 260.266Z" fill="#120283"/>
<path d="M301.395 292.993C297.464 296.334 291.33 300.608 284.705 301.675C277.251 302.876 270.784 296.945 267.257 292.786C269.075 292.441 270.202 292.346 270.202 292.346L297.701 292.228H297.722C297.911 292.268 299.299 292.476 301.395 292.993Z" fill="#E8ECF8"/>
<path d="M328.952 322.402C328.952 322.415 328.952 322.428 328.952 322.441C323.121 300.902 302.609 293.347 302.18 293.194C303.154 293.449 304.248 293.765 305.421 294.15L305.564 294.197C306.324 294.447 307.116 294.725 307.932 295.034C309.075 295.467 310.263 295.961 311.465 296.526C312.13 296.835 312.799 297.168 313.472 297.524C313.801 297.697 314.13 297.878 314.459 298.062C322.294 302.465 329.754 309.955 328.952 322.402Z" fill="#120283"/>
</g>
</g>
<defs>
<filter id="filter0_dd_1_89960" x="0" y="0" width="387" height="388" filterUnits="userSpaceOnUse" color-interpolation-filters="sRGB">
<feFlood flood-opacity="0" result="BackgroundImageFix"/>
<feColorMatrix in="SourceAlpha" type="matrix" values="0 0 0 0 0 0 0 0 0 0 0 0 0 0 0 0 0 0 127 0" result="hardAlpha"/>
<feOffset dy="25"/>
<feGaussianBlur stdDeviation="17.5"/>
<feColorMatrix type="matrix" values="0 0 0 0 0.0862745 0 0 0 0 0.0901961 0 0 0 0 0.282353 0 0 0 0.05 0"/>
<feBlend mode="normal" in2="BackgroundImageFix" result="effect1_dropShadow_1_89960"/>
<feColorMatrix in="SourceAlpha" type="matrix" values="0 0 0 0 0 0 0 0 0 0 0 0 0 0 0 0 0 0 127 0" result="hardAlpha"/>
<feOffset/>
<feGaussianBlur stdDeviation="4"/>
<feColorMatrix type="matrix" values="0 0 0 0 0.0862745 0 0 0 0 0.0901961 0 0 0 0 0.282353 0 0 0 0.07 0"/>
<feBlend mode="normal" in2="effect1_dropShadow_1_89960" result="effect2_dropShadow_1_89960"/>
<feBlend mode="normal" in="SourceGraphic" in2="effect2_dropShadow_1_89960" result="shape"/>
</filter>
<linearGradient id="paint0_linear_1_89960" x1="362.585" y1="222.914" x2="185.305" y2="296.649" gradientUnits="userSpaceOnUse">
<stop stop-color="#E3E7F6"/>
<stop offset="1" stop-color="#E3E7F6" stop-opacity="0"/>
</linearGradient>
<linearGradient id="paint1_linear_1_89960" x1="250.585" y1="196.914" x2="73.3045" y2="270.649" gradientUnits="userSpaceOnUse">
<stop stop-color="#E3E7F6"/>
<stop offset="1" stop-color="#E3E7F6" stop-opacity="0"/>
</linearGradient>
<linearGradient id="paint2_linear_1_89960" x1="152.585" y1="229.914" x2="-24.6955" y2="303.649" gradientUnits="userSpaceOnUse">
<stop stop-color="#E3E7F6"/>
<stop offset="1" stop-color="#E3E7F6" stop-opacity="0"/>
</linearGradient>
<clipPath id="clip0_1_89960">
<rect x="35" y="10" width="317" height="318" rx="8" fill="white"/>
</clipPath>
</defs>
</svg>
