<svg width="386" height="388" viewBox="0 0 386 388" fill="none" xmlns="http://www.w3.org/2000/svg">
<g filter="url(#filter0_dd_1_89931)">
<g clip-path="url(#clip0_1_89931)">
<rect x="35" y="10" width="316" height="318" rx="8" fill="white"/>
<path d="M149.941 96.744L135.549 115H161.365V108.616H148.765L157.781 96.968C158.005 96.632 158.341 96.184 158.733 95.568C159.125 94.952 159.517 94.224 159.853 93.384C160.189 92.6 160.525 91.648 160.805 90.64C161.029 89.632 161.197 88.512 161.197 87.28C161.197 85.712 160.917 84.144 160.413 82.688C159.853 81.232 159.069 79.888 158.061 78.768C156.997 77.648 155.709 76.808 154.197 76.136C152.629 75.464 150.837 75.128 148.821 75.128C146.917 75.128 145.181 75.464 143.725 76.024C142.269 76.584 140.981 77.368 139.917 78.264C138.853 79.16 137.957 80.224 137.285 81.4C136.557 82.576 135.997 83.752 135.661 84.928L141.653 87.112C142.045 85.544 142.829 84.2 144.061 83.08C145.237 81.96 146.749 81.4 148.541 81.4C150.445 81.4 151.901 82.016 152.909 83.248C153.917 84.48 154.477 85.936 154.477 87.616C154.477 88.68 154.309 89.688 153.973 90.584C153.637 91.48 153.189 92.32 152.741 93.104C152.237 93.888 151.733 94.56 151.229 95.176C150.669 95.792 150.277 96.296 149.941 96.744ZM181.395 109.4C180.051 109.4 178.875 109.064 177.867 108.28C176.859 107.552 176.019 106.544 175.347 105.256C174.675 104.024 174.171 102.512 173.835 100.832C173.499 99.152 173.331 97.304 173.331 95.4C173.331 93.496 173.499 91.704 173.835 90.024C174.171 88.344 174.675 86.832 175.347 85.544C176.019 84.312 176.859 83.304 177.867 82.52C178.875 81.792 180.051 81.4 181.395 81.4C182.739 81.4 183.915 81.792 184.923 82.52C185.931 83.304 186.715 84.312 187.387 85.544C188.059 86.832 188.507 88.344 188.843 90.024C189.179 91.704 189.347 93.496 189.347 95.4C189.347 97.304 189.179 99.152 188.843 100.832C188.507 102.512 188.059 104.024 187.387 105.256C186.715 106.544 185.931 107.552 184.923 108.28C183.915 109.064 182.739 109.4 181.395 109.4ZM181.395 75.128C178.875 75.128 176.691 75.688 174.843 76.808C172.995 77.928 171.483 79.44 170.251 81.288C169.019 83.192 168.067 85.32 167.507 87.784C166.891 90.248 166.611 92.768 166.611 95.4C166.611 98.088 166.891 100.608 167.507 103.072C168.067 105.536 169.019 107.664 170.251 109.512C171.483 111.416 172.995 112.872 174.843 113.992C176.691 115.112 178.875 115.672 181.395 115.672C183.859 115.672 186.043 115.112 187.891 113.992C189.683 112.872 191.195 111.416 192.427 109.512C193.659 107.664 194.555 105.536 195.171 103.072C195.731 100.608 196.067 98.088 196.067 95.4C196.067 92.768 195.731 90.248 195.171 87.784C194.555 85.32 193.659 83.192 192.427 81.288C191.195 79.44 189.683 77.928 187.891 76.808C186.043 75.688 183.859 75.128 181.395 75.128ZM211.156 75.8L199.228 85.32L203.092 90.248L209.98 84.76V115H216.7V75.8H211.156ZM225.231 75.8V82.184H242.647L226.519 113.376L232.231 116.344L253.231 75.8H225.231Z" fill="#1A2578"/>
<path d="M143.682 159.222V154.36H150.524V152.6H141.834V168H143.682V160.982H150.084V159.222H143.682ZM157.486 166.548C156.958 166.548 156.496 166.46 156.078 166.262C155.66 166.086 155.308 165.822 155.022 165.492C154.714 165.162 154.494 164.766 154.34 164.326C154.164 163.886 154.098 163.424 154.098 162.918C154.098 162.434 154.164 161.95 154.34 161.51C154.494 161.07 154.714 160.696 155.022 160.366C155.308 160.036 155.66 159.772 156.078 159.574C156.496 159.398 156.958 159.288 157.486 159.288C157.992 159.288 158.454 159.398 158.872 159.574C159.29 159.772 159.642 160.036 159.95 160.366C160.236 160.696 160.456 161.07 160.632 161.51C160.786 161.95 160.874 162.434 160.874 162.918C160.874 163.424 160.786 163.886 160.632 164.326C160.456 164.766 160.236 165.162 159.95 165.492C159.642 165.822 159.29 166.086 158.872 166.262C158.454 166.46 157.992 166.548 157.486 166.548ZM157.486 157.572C156.738 157.572 156.034 157.726 155.396 157.99C154.758 158.276 154.208 158.65 153.746 159.134C153.262 159.618 152.91 160.168 152.646 160.828C152.382 161.488 152.25 162.17 152.25 162.918C152.25 163.666 152.382 164.37 152.646 165.03C152.91 165.69 153.262 166.24 153.746 166.724C154.208 167.208 154.758 167.582 155.396 167.846C156.034 168.132 156.738 168.264 157.486 168.264C158.234 168.264 158.916 168.132 159.554 167.846C160.192 167.582 160.742 167.208 161.226 166.724C161.688 166.24 162.062 165.69 162.326 165.03C162.59 164.37 162.722 163.666 162.722 162.918C162.722 162.17 162.59 161.488 162.326 160.828C162.062 160.168 161.688 159.618 161.226 159.134C160.742 158.65 160.192 158.276 159.554 157.99C158.916 157.726 158.234 157.572 157.486 157.572ZM168.641 168.264C169.037 168.264 169.411 168.22 169.763 168.088C170.093 167.978 170.401 167.824 170.665 167.648C170.929 167.472 171.149 167.296 171.325 167.076C171.501 166.856 171.655 166.658 171.787 166.438V168H173.503V157.836H171.655V164.876C171.413 165.316 171.083 165.69 170.665 166.042C170.247 166.394 169.719 166.548 169.059 166.548C168.751 166.548 168.443 166.504 168.157 166.416C167.871 166.328 167.629 166.174 167.409 165.954C167.189 165.756 167.013 165.492 166.881 165.184C166.749 164.876 166.683 164.502 166.683 164.062V157.836H164.835V164.37C164.835 165.008 164.923 165.558 165.143 166.042C165.363 166.526 165.649 166.944 166.001 167.274C166.353 167.604 166.749 167.846 167.211 168.022C167.651 168.198 168.135 168.264 168.641 168.264ZM181.191 157.572C180.399 157.572 179.739 157.748 179.211 158.1C178.683 158.452 178.309 158.848 178.045 159.266V157.836H176.329V168H178.177V161.004C178.287 160.828 178.419 160.63 178.595 160.41C178.749 160.212 178.925 160.036 179.145 159.86C179.365 159.684 179.607 159.552 179.871 159.442C180.135 159.354 180.443 159.288 180.795 159.288C181.103 159.288 181.389 159.354 181.675 159.442C181.961 159.53 182.203 159.684 182.423 159.882C182.643 160.102 182.819 160.344 182.951 160.652C183.083 160.96 183.149 161.334 183.149 161.774V168H184.997V161.466C184.997 160.85 184.887 160.278 184.689 159.794C184.469 159.31 184.205 158.914 183.853 158.584C183.501 158.254 183.083 158.012 182.621 157.836C182.159 157.66 181.675 157.572 181.191 157.572ZM195.325 161.048V164.788C195.193 165.008 195.039 165.206 194.863 165.404C194.687 165.624 194.467 165.8 194.203 165.976C193.939 166.152 193.653 166.284 193.345 166.394C193.037 166.504 192.685 166.548 192.289 166.548C191.783 166.548 191.321 166.46 190.925 166.262C190.507 166.086 190.155 165.822 189.869 165.492C189.583 165.162 189.363 164.766 189.209 164.326C189.033 163.886 188.967 163.424 188.967 162.918C188.967 162.434 189.033 161.95 189.209 161.51C189.363 161.07 189.583 160.696 189.891 160.366C190.177 160.036 190.529 159.772 190.947 159.574C191.343 159.398 191.805 159.288 192.311 159.288C193.015 159.288 193.631 159.464 194.137 159.816C194.621 160.168 195.017 160.586 195.325 161.048ZM192.047 157.572C191.343 157.572 190.705 157.726 190.111 157.99C189.495 158.276 188.989 158.65 188.549 159.134C188.109 159.618 187.757 160.168 187.493 160.828C187.229 161.488 187.119 162.17 187.119 162.918C187.119 163.666 187.229 164.37 187.493 165.03C187.757 165.69 188.109 166.24 188.549 166.724C188.989 167.208 189.517 167.582 190.133 167.846C190.727 168.132 191.365 168.264 192.069 168.264C192.487 168.264 192.883 168.22 193.235 168.11C193.587 168.022 193.895 167.89 194.181 167.714C194.467 167.56 194.731 167.384 194.951 167.164C195.171 166.966 195.347 166.746 195.479 166.526V168H197.173V151.368H195.325V159.09C195.061 158.738 194.643 158.408 194.093 158.078C193.543 157.748 192.861 157.572 192.047 157.572ZM207.915 162.038H201.535C201.557 161.774 201.645 161.488 201.777 161.158C201.909 160.85 202.107 160.542 202.371 160.278C202.635 160.014 202.943 159.772 203.339 159.574C203.735 159.398 204.197 159.288 204.747 159.288C205.275 159.288 205.715 159.376 206.111 159.552C206.507 159.728 206.815 159.97 207.079 160.234C207.343 160.52 207.541 160.828 207.673 161.136C207.805 161.466 207.893 161.774 207.915 162.038ZM204.747 157.572C203.977 157.572 203.273 157.726 202.657 157.99C202.041 158.276 201.513 158.65 201.073 159.134C200.633 159.618 200.281 160.19 200.039 160.828C199.797 161.488 199.687 162.17 199.687 162.874C199.687 163.644 199.819 164.348 200.083 165.008C200.347 165.668 200.699 166.24 201.161 166.724C201.623 167.208 202.173 167.604 202.833 167.868C203.471 168.132 204.175 168.264 204.923 168.264C205.407 168.264 205.869 168.22 206.309 168.11C206.727 168 207.123 167.846 207.475 167.648C207.827 167.472 208.157 167.252 208.443 167.01C208.729 166.768 208.993 166.526 209.213 166.262L208.047 165.052C207.739 165.448 207.343 165.778 206.815 166.086C206.287 166.394 205.693 166.548 204.989 166.548C204.505 166.548 204.043 166.482 203.647 166.306C203.229 166.152 202.877 165.932 202.569 165.646C202.261 165.382 201.997 165.052 201.821 164.7C201.623 164.348 201.513 163.974 201.491 163.578H209.697C209.697 163.468 209.719 163.358 209.719 163.27V162.984C209.719 162.17 209.587 161.422 209.345 160.762C209.081 160.102 208.751 159.53 208.311 159.046C207.871 158.584 207.343 158.232 206.727 157.968C206.111 157.704 205.451 157.572 204.747 157.572ZM219.323 161.048V164.788C219.191 165.008 219.037 165.206 218.861 165.404C218.685 165.624 218.465 165.8 218.201 165.976C217.937 166.152 217.651 166.284 217.343 166.394C217.035 166.504 216.683 166.548 216.287 166.548C215.781 166.548 215.319 166.46 214.923 166.262C214.505 166.086 214.153 165.822 213.867 165.492C213.581 165.162 213.361 164.766 213.207 164.326C213.031 163.886 212.965 163.424 212.965 162.918C212.965 162.434 213.031 161.95 213.207 161.51C213.361 161.07 213.581 160.696 213.889 160.366C214.175 160.036 214.527 159.772 214.945 159.574C215.341 159.398 215.803 159.288 216.309 159.288C217.013 159.288 217.629 159.464 218.135 159.816C218.619 160.168 219.015 160.586 219.323 161.048ZM216.045 157.572C215.341 157.572 214.703 157.726 214.109 157.99C213.493 158.276 212.987 158.65 212.547 159.134C212.107 159.618 211.755 160.168 211.491 160.828C211.227 161.488 211.117 162.17 211.117 162.918C211.117 163.666 211.227 164.37 211.491 165.03C211.755 165.69 212.107 166.24 212.547 166.724C212.987 167.208 213.515 167.582 214.131 167.846C214.725 168.132 215.363 168.264 216.067 168.264C216.485 168.264 216.881 168.22 217.233 168.11C217.585 168.022 217.893 167.89 218.179 167.714C218.465 167.56 218.729 167.384 218.949 167.164C219.169 166.966 219.345 166.746 219.477 166.526V168H221.171V151.368H219.323V159.09C219.059 158.738 218.641 158.408 218.091 158.078C217.541 157.748 216.859 157.572 216.045 157.572ZM230.555 154.58C230.555 154.932 230.665 155.218 230.929 155.46C231.171 155.724 231.457 155.834 231.809 155.834C232.139 155.834 232.425 155.724 232.689 155.46C232.931 155.218 233.063 154.932 233.063 154.58C233.063 154.25 232.931 153.964 232.689 153.7C232.425 153.458 232.139 153.326 231.809 153.326C231.457 153.326 231.171 153.458 230.929 153.7C230.665 153.964 230.555 154.25 230.555 154.58ZM230.885 157.836V168H232.733V157.836H230.885ZM240.746 157.572C239.954 157.572 239.294 157.748 238.766 158.1C238.238 158.452 237.864 158.848 237.6 159.266V157.836H235.884V168H237.732V161.004C237.842 160.828 237.974 160.63 238.15 160.41C238.304 160.212 238.48 160.036 238.7 159.86C238.92 159.684 239.162 159.552 239.426 159.442C239.69 159.354 239.998 159.288 240.35 159.288C240.658 159.288 240.944 159.354 241.23 159.442C241.516 159.53 241.758 159.684 241.978 159.882C242.198 160.102 242.374 160.344 242.506 160.652C242.638 160.96 242.704 161.334 242.704 161.774V168H244.552V161.466C244.552 160.85 244.442 160.278 244.244 159.794C244.024 159.31 243.76 158.914 243.408 158.584C243.056 158.254 242.638 158.012 242.176 157.836C241.714 157.66 241.23 157.572 240.746 157.572Z" fill="#484C63"/>
<path d="M199.93 216H180V309.59H199.93V216Z" fill="url(#paint0_linear_1_89931)"/>
<path d="M177.1 313.15C189.902 313.15 200.28 302.915 200.28 290.29C200.28 277.665 189.902 267.43 177.1 267.43C164.298 267.43 153.92 277.665 153.92 290.29C153.92 302.915 164.298 313.15 177.1 313.15Z" fill="url(#paint1_linear_1_89931)"/>
<path d="M248.02 310.77C259.491 310.77 268.79 301.601 268.79 290.29C268.79 278.979 259.491 269.81 248.02 269.81C236.549 269.81 227.25 278.979 227.25 290.29C227.25 301.601 236.549 310.77 248.02 310.77Z" fill="url(#paint2_linear_1_89931)"/>
<path d="M213.76 288.56C222.729 288.56 230 281.392 230 272.55C230 263.708 222.729 256.54 213.76 256.54C204.791 256.54 197.52 263.708 197.52 272.55C197.52 281.392 204.791 288.56 213.76 288.56Z" fill="url(#paint3_linear_1_89931)"/>
<path d="M184.17 273.99C190.416 273.99 195.48 268.998 195.48 262.84C195.48 256.682 190.416 251.69 184.17 251.69C177.924 251.69 172.86 256.682 172.86 262.84C172.86 268.998 177.924 273.99 184.17 273.99Z" fill="url(#paint4_linear_1_89931)"/>
<path d="M213.02 261.24C217.289 261.24 220.75 257.828 220.75 253.62C220.75 249.412 217.289 246 213.02 246C208.751 246 205.29 249.412 205.29 253.62C205.29 257.828 208.751 261.24 213.02 261.24Z" fill="url(#paint5_linear_1_89931)"/>
<path d="M199.27 285.88C206.836 285.88 212.97 279.831 212.97 272.37C212.97 264.909 206.836 258.86 199.27 258.86C191.704 258.86 185.57 264.909 185.57 272.37C185.57 279.831 191.704 285.88 199.27 285.88Z" fill="url(#paint6_linear_1_89931)"/>
<path d="M89.89 365.74C113.025 365.74 131.78 347.249 131.78 324.44C131.78 301.631 113.025 283.14 89.89 283.14C66.7548 283.14 48 301.631 48 324.44C48 347.249 66.7548 365.74 89.89 365.74Z" fill="url(#paint7_linear_1_89931)"/>
<path d="M140.18 331.74C157.527 331.74 171.59 317.879 171.59 300.78C171.59 283.681 157.527 269.82 140.18 269.82C122.833 269.82 108.77 283.681 108.77 300.78C108.77 317.879 122.833 331.74 140.18 331.74Z" fill="url(#paint8_linear_1_89931)"/>
<path d="M293.78 365.62C318.296 365.62 338.17 346.024 338.17 321.85C338.17 297.677 318.296 278.08 293.78 278.08C269.264 278.08 249.39 297.677 249.39 321.85C249.39 346.024 269.264 365.62 293.78 365.62Z" fill="url(#paint9_linear_1_89931)"/>
<path d="M183.69 342.56C201.037 342.56 215.1 328.699 215.1 311.6C215.1 294.501 201.037 280.64 183.69 280.64C166.343 280.64 152.28 294.501 152.28 311.6C152.28 328.699 166.343 342.56 183.69 342.56Z" fill="url(#paint10_linear_1_89931)"/>
<path d="M221.43 342.55C240.926 342.55 256.73 326.97 256.73 307.75C256.73 288.53 240.926 272.95 221.43 272.95C201.934 272.95 186.13 288.53 186.13 307.75C186.13 326.97 201.934 342.55 221.43 342.55Z" fill="url(#paint11_linear_1_89931)"/>
<path d="M198.483 295.566C198.511 294.808 198.385 294.052 198.112 293.343C197.839 292.635 197.424 291.988 196.893 291.441C196.362 290.895 195.725 290.461 195.021 290.164C194.317 289.867 193.559 289.714 192.794 289.714C192.029 289.714 191.271 289.867 190.567 290.164C189.862 290.461 189.226 290.895 188.695 291.441C188.164 291.988 187.749 292.635 187.476 293.343C187.203 294.052 187.077 294.808 187.105 295.566C187.105 295.566 186.371 308.902 192.798 316C199.217 308.902 198.483 295.566 198.483 295.566Z" fill="#BF0830"/>
<path d="M173.494 264.575C173.494 264.575 152.185 274.897 160.626 305.326C160.626 305.326 165.132 290.03 179.593 286.063L173.494 264.575Z" fill="#120283"/>
<path d="M213.426 264.575C213.426 264.575 234.735 274.897 226.294 305.326C226.294 305.326 221.781 290.03 207.328 286.063L213.426 264.575Z" fill="#120283"/>
<path d="M200.386 292.411H185.894C185.616 292.412 185.346 292.319 185.128 292.145C184.911 291.972 184.76 291.73 184.699 291.459L183.918 287.953C183.877 287.773 183.877 287.587 183.918 287.408C183.959 287.229 184.04 287.061 184.155 286.918C184.27 286.774 184.415 286.659 184.581 286.58C184.747 286.501 184.929 286.46 185.113 286.461H201.167C201.351 286.46 201.532 286.501 201.698 286.58C201.864 286.659 202.01 286.774 202.125 286.918C202.24 287.061 202.321 287.229 202.362 287.408C202.403 287.587 202.403 287.773 202.361 287.953L201.581 291.459C201.52 291.73 201.369 291.972 201.151 292.145C200.934 292.319 200.664 292.412 200.386 292.411Z" fill="#1A2578"/>
<path d="M172.229 256.352C172.229 256.352 174.455 276.763 181.326 289.694C188.968 286.569 197.531 286.569 205.172 289.694C205.172 289.694 213.051 278.762 214.667 254.736C215.597 240.884 214.488 225.065 209.896 211.431H177.843C173.58 222.535 170.543 237.449 172.229 256.352Z" fill="#DEE4FA"/>
<path d="M190.884 189.318C185.267 195.863 180.853 203.349 177.844 211.431H209.897C206.961 202.709 202.604 194.885 196.435 189.053C196.058 188.696 195.613 188.42 195.126 188.24C194.639 188.06 194.121 187.98 193.603 188.004C193.085 188.029 192.577 188.158 192.109 188.384C191.642 188.61 191.225 188.927 190.884 189.318Z" fill="#1A2578"/>
<path d="M192.891 255.369C192.891 255.369 183.06 277.708 192.891 304.272C192.891 304.272 203.814 282.104 192.891 255.369Z" fill="#120283"/>
<path d="M193.804 247.006C200.635 247.006 206.172 241.468 206.172 234.637C206.172 227.807 200.635 222.269 193.804 222.269C186.973 222.269 181.436 227.807 181.436 234.637C181.436 241.468 186.973 247.006 193.804 247.006Z" fill="#1A2578"/>
<path d="M202.168 236.611C203.253 231.993 200.388 227.37 195.77 226.285C191.153 225.2 186.53 228.064 185.445 232.682C184.36 237.3 187.224 241.923 191.842 243.008C196.46 244.093 201.083 241.229 202.168 236.611Z" fill="#BF0830"/>
</g>
</g>
<defs>
<filter id="filter0_dd_1_89931" x="0" y="0" width="386" height="388" filterUnits="userSpaceOnUse" color-interpolation-filters="sRGB">
<feFlood flood-opacity="0" result="BackgroundImageFix"/>
<feColorMatrix in="SourceAlpha" type="matrix" values="0 0 0 0 0 0 0 0 0 0 0 0 0 0 0 0 0 0 127 0" result="hardAlpha"/>
<feOffset dy="25"/>
<feGaussianBlur stdDeviation="17.5"/>
<feColorMatrix type="matrix" values="0 0 0 0 0.0862745 0 0 0 0 0.0901961 0 0 0 0 0.282353 0 0 0 0.05 0"/>
<feBlend mode="normal" in2="BackgroundImageFix" result="effect1_dropShadow_1_89931"/>
<feColorMatrix in="SourceAlpha" type="matrix" values="0 0 0 0 0 0 0 0 0 0 0 0 0 0 0 0 0 0 127 0" result="hardAlpha"/>
<feOffset/>
<feGaussianBlur stdDeviation="4"/>
<feColorMatrix type="matrix" values="0 0 0 0 0.0862745 0 0 0 0 0.0901961 0 0 0 0 0.282353 0 0 0 0.07 0"/>
<feBlend mode="normal" in2="effect1_dropShadow_1_89931" result="effect2_dropShadow_1_89931"/>
<feBlend mode="normal" in="SourceGraphic" in2="effect2_dropShadow_1_89931" result="shape"/>
</filter>
<linearGradient id="paint0_linear_1_89931" x1="199.106" y1="218.051" x2="167.723" y2="220.873" gradientUnits="userSpaceOnUse">
<stop stop-color="#E3E7F6"/>
<stop offset="1" stop-color="#E3E7F6" stop-opacity="0"/>
</linearGradient>
<linearGradient id="paint1_linear_1_89931" x1="198.364" y1="268.432" x2="136.174" y2="295.06" gradientUnits="userSpaceOnUse">
<stop stop-color="#E3E7F6"/>
<stop offset="1" stop-color="#E3E7F6" stop-opacity="0"/>
</linearGradient>
<linearGradient id="paint2_linear_1_89931" x1="267.073" y1="270.707" x2="211.352" y2="294.57" gradientUnits="userSpaceOnUse">
<stop stop-color="#E3E7F6"/>
<stop offset="1" stop-color="#E3E7F6" stop-opacity="0"/>
</linearGradient>
<linearGradient id="paint3_linear_1_89931" x1="228.657" y1="257.242" x2="185.092" y2="275.902" gradientUnits="userSpaceOnUse">
<stop stop-color="#E3E7F6"/>
<stop offset="1" stop-color="#E3E7F6" stop-opacity="0"/>
</linearGradient>
<linearGradient id="paint4_linear_1_89931" x1="194.545" y1="252.179" x2="164.205" y2="265.174" gradientUnits="userSpaceOnUse">
<stop stop-color="#E3E7F6"/>
<stop offset="1" stop-color="#E3E7F6" stop-opacity="0"/>
</linearGradient>
<linearGradient id="paint5_linear_1_89931" x1="220.111" y1="246.334" x2="199.375" y2="255.217" gradientUnits="userSpaceOnUse">
<stop stop-color="#E3E7F6"/>
<stop offset="1" stop-color="#E3E7F6" stop-opacity="0"/>
</linearGradient>
<linearGradient id="paint6_linear_1_89931" x1="211.837" y1="259.452" x2="175.082" y2="275.191" gradientUnits="userSpaceOnUse">
<stop stop-color="#E3E7F6"/>
<stop offset="1" stop-color="#E3E7F6" stop-opacity="0"/>
</linearGradient>
<linearGradient id="paint7_linear_1_89931" x1="128.317" y1="284.95" x2="15.94" y2="333.081" gradientUnits="userSpaceOnUse">
<stop stop-color="#E3E7F6"/>
<stop offset="1" stop-color="#E3E7F6" stop-opacity="0"/>
</linearGradient>
<linearGradient id="paint8_linear_1_89931" x1="168.993" y1="271.177" x2="84.7372" y2="307.273" gradientUnits="userSpaceOnUse">
<stop stop-color="#E3E7F6"/>
<stop offset="1" stop-color="#E3E7F6" stop-opacity="0"/>
</linearGradient>
<linearGradient id="paint9_linear_1_89931" x1="334.5" y1="279.998" x2="215.412" y2="330.998" gradientUnits="userSpaceOnUse">
<stop stop-color="#E3E7F6"/>
<stop offset="1" stop-color="#E3E7F6" stop-opacity="0"/>
</linearGradient>
<linearGradient id="paint10_linear_1_89931" x1="212.503" y1="281.997" x2="128.247" y2="318.093" gradientUnits="userSpaceOnUse">
<stop stop-color="#E3E7F6"/>
<stop offset="1" stop-color="#E3E7F6" stop-opacity="0"/>
</linearGradient>
<linearGradient id="paint11_linear_1_89931" x1="253.812" y1="274.475" x2="159.116" y2="315.037" gradientUnits="userSpaceOnUse">
<stop stop-color="#E3E7F6"/>
<stop offset="1" stop-color="#E3E7F6" stop-opacity="0"/>
</linearGradient>
<clipPath id="clip0_1_89931">
<rect x="35" y="10" width="316" height="318" rx="8" fill="white"/>
</clipPath>
</defs>
</svg>
